<svg version="1.1" xmlns="http://www.w3.org/2000/svg" xmlns:xlink="http://www.w3.org/1999/xlink" x="0px" y="0px"
	 viewBox="0 0 770.2 595.3" style="enable-background:new 0 0 770.2 595.3;" xml:space="preserve">
<g id="Grass">
	<rect x="4.2" y="2.3" class="st1" width="770.2" height="595.3"/>
</g>
<g id="Roads">
	<g>
		<path class="st2" d="M511.7,321.5"/>
		<path class="st2" d="M437.5,12.6"/>
		<path class="st2" d="M511.7,321.5"/>
		<path class="st2" d="M212.2,353.2"/>
		<path class="st2" d="M635.6,396.8"/>
		<path class="st2" d="M450.9,607C450.8,607,450.8,607,450.9,607c-0.2-0.3-16.9-26-38-53.6c-12.4-16.2-23.8-29.9-34-40.7
			c-12.7-13.5-23.5-22.4-32.1-26.5c-19.4-9.3-34.1-14.2-43.1-16.7c-9.7-2.7-14.9-3.1-14.9-3.1c0,0,0,0,0,0c0,0,0.1-3.8,6.4-10.7
			c1.9-2.1,18.2-11.3,40.6-24.1c26.2-14.9,58.8-33.5,86.1-50.5c14.8-9.3,26.5-17.2,34.8-23.4c9.5-7.3,14.8-12.6,15.7-16
			c-0.3-0.5-12.8-0.9-70.8-0.2c-34.2,0.4-68.8,1-70,1c-2.9,6.7-8,12-15.1,15.7c-8.3,4.3-19.5,6.5-33.2,6.5c-1.1,0-2.3,0-3.4,0
			c-2.1,0-50.4,0.2-51.1,0c-0.7-0.2-22.4-20.3-23.6-21.5c-5.3,1.7-26.6,3.5-47.6,4c-11.3,0.2-21.3,0.1-28.8-0.5
			c-8.8-0.7-14-1.8-15.5-3.5c-1.8-2.2-8.2-13.4-8.6-14c-1-0.1-28.8-1.9-33-4c-1.8-0.9-2.4-7.5-1.7-19.7c0.5-9,1.6-17.9,1.6-18
			c0,0,0,0,0,0c9.8-13.7,20.4-25.2,31.5-34.1c9.5-7.6,19.3-13.4,29.1-17.2c8.1-3.1,16.2-4.9,23.7-5.1c3.5-0.1,10.1,0,15.2,2.3
			c0.4,0.2,0.8,0.7,1,1.6c1.3,4.2,0.7,15.4,0,24.1c-0.8,9.3-1.9,18.1-2.2,18.7c0.6,0.5,17.4,0.2,27.6,0c5.4-0.1,9.4-0.2,9.7-0.1
			c0.4-0.2,0.9-8.4,1.5-17.9c1.3-19.4,3.2-48.7,6.3-55.3c1.7-3.7,5.6-11.1,12-19.7c6.5-8.7,13.8-16.2,21.6-22.2
			c15.5-11.8,22.9-12.3,29.4-12.7c0.9-0.1,1.7-0.1,2.5-0.2c5.5-0.5,22.8,0.9,34.2,1.8c3.3,0.3,6.1,0.5,8.1,0.6c0.1,0,0.2,0,0.3,0
			c4,0,14.1-5.2,29.2-15c11.7-7.6,22.4-15.5,22.6-15.5c0,0,0,0,0,0h0l104.6,1.3c0.3,0,29.8-2.7,31.4-2.8c13.4-1.1,25.2-4.5,34.2-10
			c0.2-0.1,0.4-0.2,0.5-0.3c0.1-0.1,11.2-8.4,12.3-10.6c1.7-3.7,3.2-9.2,4.8-14.9c3.4-12.4,7.3-26.5,15.2-31.9
			c11.4-7.7,100.9-60.1,101.8-60.6c0,0,0.1,0,0.1,0s0,0.1,0,0.1c-0.9,0.5-90.3,52.9-101.8,60.6c-7.8,5.3-11.7,19.4-15.2,31.8
			c-1.6,5.7-3.1,11.2-4.8,14.9c-1,2.3-12.2,10.6-12.3,10.7c-0.1,0-0.2,0.1-0.5,0.3c-9,5.4-20.9,8.9-34.2,10
			c-1.6,0.1-31.1,2.8-31.4,2.8l-104.6-1.3c-0.4,0.3-11,8-22.5,15.5c-15.7,10.3-25.7,15.3-29.5,15c-2-0.1-4.9-0.4-8.1-0.6
			c-11.4-0.9-28.6-2.3-34.2-1.8c-0.8,0.1-1.6,0.1-2.5,0.2c-6.5,0.4-13.9,0.9-29.4,12.7c-7.8,5.9-15,13.4-21.5,22.1
			c-6.4,8.6-10.3,16-12,19.7c-3.1,6.6-5.1,35.9-6.3,55.3c-0.8,11.6-1.2,17.6-1.6,17.9c0,0-0.1,0-0.1,0c-0.4-0.1-4.5,0-9.7,0.1
			c-17.7,0.3-27.4,0.4-27.7-0.1c0,0,0-0.1,0-0.1c0.2-0.3,1.4-9,2.2-18.7c0.7-8.7,1.3-19.9,0-24c-0.3-0.8-0.6-1.3-1-1.5
			c-2.2-1-7-2.5-15.2-2.3c-7.4,0.2-15.6,2-23.7,5.1c-9.9,3.8-19.7,9.6-29.1,17.2c-11.1,8.9-21.7,20.4-31.5,34.1
			c-0.1,0.8-4.3,35.5,0,37.6c4.3,2.1,32.7,3.9,33,4c0,0,0,0,0,0c0.1,0.1,6.7,11.8,8.6,14c1.4,1.6,6.6,2.8,15.4,3.5
			c7.5,0.6,17.5,0.7,28.8,0.5c21-0.4,42.4-2.2,47.6-4c0,0,0,0,0,0c7.9,7.4,23.1,21.3,23.6,21.5c0.6,0.2,50.5,0,51,0
			c15.3,0.4,27.6-1.8,36.6-6.5c7.1-3.7,12.2-9,15.1-15.6c0,0,0,0,0,0c4.2-0.1,78-1.4,117.1-1.4c14,0,23.5,0.2,23.8,0.6
			c0,0,0,0.1,0,0.1c-0.9,3.4-6.2,8.8-15.7,16.1c-8.2,6.3-19.9,14.2-34.8,23.4c-27.3,17.1-59.9,35.6-86.1,50.5
			c-22.5,12.8-38.7,22-40.6,24.1c-5.9,6.4-6.3,10.2-6.4,10.6c0.5,0.1,5.7,0.6,14.9,3.1c9,2.5,23.7,7.4,43.1,16.7
			c8.6,4.1,19.4,13,32.1,26.5c10.2,10.8,21.7,24.4,34,40.7C434,580.9,450.7,606.7,450.9,607C450.9,606.9,450.9,607,450.9,607
			C450.9,607,450.9,607,450.9,607z"/>
		<path class="st2" d="M467.3,136.9"/>
		<path class="st2" d="M696.7,106.3c-7.4,0-17.4,0-30.6-0.1c-0.1,0-0.1,0.1-0.1,0.1c0,0-0.1,0-0.1,0c0,0,0,0,0-0.1
			c-7.1,0-15.1-0.1-24.2-0.1c-38-0.2-76.5-0.5-76.9-0.5c0,0,0,0,0-0.1c0,0,0,0,0,0l0,0c0.9,0,57,0.5,101.2,0.7
			c0.4-0.3,1.8-1.2,3.2-3.3c2.7-4.2,3-9.5,2.8-13.3c-0.5-10.2,1-11.2,5.7-14.3c1.4-0.9,3.1-2,5.1-3.6c2.1-1.6,2.1-6,2.1-10.6
			c0-5.2,0-10.5,2.9-12.7c2.6-2,8.7-3,15.5-2.6c7.3,0.4,13.4,2.3,16.3,5.1c2.7,2.6,4,10.3,4.6,16.4c0.7,6.5,0.7,12.5,0.7,12.6
			c0,0.2-1.6,17.9-6,26.1C718.9,106.1,718.8,106.3,696.7,106.3z M666.2,106.2c28.5,0.1,52,0.1,52.7-0.2c4.3-8.2,6-25.9,6-26.1
			c0-0.2-0.1-24-5.3-28.9c-2.9-2.8-9-4.6-16.3-5.1c-6.8-0.4-12.9,0.6-15.4,2.6c-2.8,2.2-2.8,7.5-2.8,12.6c0,4.6,0,9-2.1,10.7
			c-2,1.6-3.8,2.7-5.1,3.6c-4.7,3.1-6.2,4-5.7,14.2c0.2,3.8-0.2,9.2-2.9,13.3C668,104.8,666.8,105.8,666.2,106.2z"/>
		<path class="st2" d="M724.8,74.2h-45.1c0,0,0,0,0,0s0,0,0,0L724.8,74.2C724.8,74.1,724.8,74.2,724.8,74.2
			C724.8,74.2,724.8,74.2,724.8,74.2z"/>
		<path class="st2" d="M707.4,171.7c-4.3,0-8-0.6-8.8-0.7c-0.4-0.1-10.9-1.1-21-2.1c-6.1-0.6-12.4-1.2-16.6-1.7
			c-34.1-3.5-105.5-8.8-106.3-8.8c0,0,0,0,0,0s0,0,0,0c0.1-0.4,11.8-41.8,10.6-50.1c-0.3-2.4-1.4-5.6-4.4-7.3c-1.8-1-3.5-1-3.5-1
			c0,0,0,0,0,0s0,0,0,0c0,0,1.7,0,3.5,1.1c3,1.8,4.1,5,4.4,7.4c1.2,8.2-10.1,48.3-10.6,50.1c2.5,0.2,72.6,5.4,106.2,8.8
			c4.2,0.4,10.5,1.1,16.6,1.7c10.6,1.1,20.6,2.1,21,2.1c0.8,0.1,5.1,0.8,9.7,0.7c5.5-0.1,9.3-1.2,11.2-3.3
			c4.6-4.9,0.7-64.8,0.7-65.5c0,0,0-0.1,0-0.1c0,0,0,0,0,0c0,0,0,0,0,0c0,0.2,1,15.3,1.4,30.9c0.5,20.9-0.2,32.6-2.1,34.6
			c-2,2.1-5.8,3.2-11.3,3.4C708,171.7,707.7,171.7,707.4,171.7z"/>
		<path class="st2" d="M562.1,130.1C562.1,130.1,562.1,130.1,562.1,130.1C562.1,130,562.1,130,562.1,130.1
			c1.2-4.1,7.6-9.9,17.2-15.6c8.8-5.2,17.5-8.8,21.7-8.8c0,0,0,0,0,0s0,0,0,0c-4.1,0-12.8,3.5-21.6,8.8
			C569.8,120.3,563.4,126,562.1,130.1C562.2,130,562.1,130.1,562.1,130.1z"/>
		<path class="st2" d="M645.3,165.7C645.3,165.7,645.3,165.7,645.3,165.7C645.3,165.7,645.3,165.6,645.3,165.7
			c0.1-0.2,12-8.4,14.6-17.5c0.9-3.2,2-41.5,2-41.9c0,0,0,0,0,0h0c0,0,0,0,0,0.1c0,0.4-1.1,38.7-2,41.9
			C657.4,157.4,645.5,165.6,645.3,165.7C645.3,165.7,645.3,165.7,645.3,165.7z"/>
		<path class="st2" d="M663.4,167.4c-0.1,0-0.2,0-0.2,0c0,0,0,0,0-0.1c0,0,0,0,0,0c0,0,0,0,0,0c0,0,5.5,0.1,11.1-0.8
			c5.2-0.8,11.6-2.6,12.6-6.6c2-7.5,2.3-53.2,2.3-53.6c0,0,0,0,0,0l0,0c0,0,0,0,0,0.1c0,0.5-0.3,46.1-2.3,53.7
			c-0.5,1.8-2,3.3-4.6,4.5c-2.1,0.9-4.8,1.7-8.1,2.2C669.3,167.4,664.5,167.4,663.4,167.4z"/>
		<path class="st2" d="M461.2,158.1c-15.1,0-28.2-0.1-33.4-0.5c-7.7-0.6-17.6-1.6-25.3-3.9c-3.8-1.1-6.9-2.5-9-4.1
			c-2.4-1.8-3.8-3.9-4.1-6.2c-1.3-9.8,0-21.7,0-21.8c0,0,0,0,0.1,0c0,0,0,0,0,0.1c0,0.1-1.3,12,0,21.8c0.3,2.3,1.7,4.4,4,6.2
			c2.1,1.6,5.1,2.9,9,4.1c7.7,2.3,17.6,3.2,25.3,3.8c15.5,1.2,99.4,0,101.9,0v-18.9c0-5-8.4-19.8-8.5-20c0,0,0,0,0,0c0,0,0,0,0,0
			l33.6-16.9V76.1l-17.6-23.9l-22.6,6.6l-16.4,32.4c0,0,0,0-0.1,0l-43.3-10.6l-50.6,7.3l-29.2,33.5c0,0,0,0-0.1,0c0,0,0,0,0-0.1
			l29.2-33.5c0,0,0,0,0,0l50.7-7.3c0,0,0,0,0,0l43.3,10.6l16.4-32.4c0,0,0,0,0,0l22.7-6.6c0,0,0,0,0.1,0L554.9,76c0,0,0,0,0,0v25.5
			c0,0,0,0,0,0l-33.6,16.9c0.5,0.9,8.5,15.1,8.5,20v19c0,0,0,0,0,0C529.2,157.5,491.2,158.1,461.2,158.1z"/>
		<path class="st2" d="M454.8,157.5C454.8,157.5,454.8,157.5,454.8,157.5l0-35.1c0,0,0,0,0,0s0,0,0,0L454.8,157.5
			C454.9,157.5,454.9,157.5,454.8,157.5z"/>
		<path class="st2" d="M492.8,211.9c-19.6,0-46.1-0.1-72.4-0.2c-30.3-0.1-100.8-0.5-101.4-1.4c0,0,0,0,0-0.1
			c0.4-1.3,3.8-57.7,3.8-58.3c0,0,0,0,0,0c0,0,0,0,0,0c0,0,0,0,0,0.1c-0.1,2.3-3.4,56.5-3.8,58.3c1.1,0.5,39,1,101.6,1.3
			c50.2,0.2,101.4,0.2,103.4,0c3.9-0.4,13.1-45.5,13.2-46c0,0,0,0,0,0l17.6-7.3c0,0,0.1,0,0.1,0c0,0,0,0.1,0,0.1l-17.6,7.3
			c-0.5,2.2-9.3,45.6-13.3,46C523.1,211.8,510.8,211.9,492.8,211.9z"/>
		<path class="st2" d="M321.4,175.8C321.4,175.8,321.4,175.8,321.4,175.8C321.4,175.8,321.3,175.8,321.4,175.8
			c0.1-2.4,3.7-8.7,19.7-25.2c10-10.3,20.1-19.7,21.8-20.8c0,0,0.1,0,0.1,0c0,0,0,0.1,0,0.1C359.5,132.2,322.1,167.8,321.4,175.8
			C321.4,175.8,321.4,175.8,321.4,175.8z"/>
		<path class="st2" d="M507.3,604.8C507.3,604.8,507.3,604.8,507.3,604.8C507.2,604.8,507.2,604.8,507.3,604.8l14.1-201.4l6.6-91.2
			l0-0.3c3.9-37.1,8-75.4-3.4-102c0,0,0-0.1,0-0.1c0,0,0.1,0,0.1,0c11.4,26.6,7.3,65,3.4,102.1l0,0.3l-6.6,91.2L507.3,604.8
			C507.3,604.8,507.3,604.8,507.3,604.8z"/>
		<path class="st2" d="M784.4,321.5C784.4,321.5,784.4,321.5,784.4,321.5l-254.7-27.4c0,0,0,0,0-0.1c0,0,0,0,0,0c0,0,0,0,0,0
			L784.4,321.5C784.5,321.4,784.5,321.5,784.4,321.5C784.5,321.5,784.5,321.5,784.4,321.5z"/>
		<path class="st2" d="M786.2,232.9C786.2,232.9,786.2,232.9,786.2,232.9l-259.6-25.3c0,0,0,0,0-0.1c0,0,0,0,0,0c0,0,0,0,0,0
			L786.2,232.9C786.2,232.8,786.3,232.8,786.2,232.9C786.3,232.9,786.2,232.9,786.2,232.9z"/>
		<path class="st2" d="M734.3,598.5L734.3,598.5c0.4-15,13.1-367.6,13.6-369.4c0,0,0,0,0.1,0c0,0,0,0,0,0.1
			C747.5,230.8,734.4,594.8,734.3,598.5z"/>
		<path class="st2" d="M605.1,604.8C605.1,604.8,605.1,604.8,605.1,604.8C605,604.8,605,604.7,605.1,604.8L789.3,458
			c0,0,0.1,0,0.1,0s0,0.1,0,0.1L605.1,604.8C605.1,604.8,605.1,604.8,605.1,604.8z"/>
		<path class="st2" d="M429.5,471.9c-9,0-20.8-3.8-35.2-11.5c-15.3-8.1-29.6-18.3-37.2-23.8c-3-2.1-5-3.6-5.4-3.7
			c-0.9-0.2-6.1-2-13.3-4.5c-19.1-6.6-51.1-17.5-53.7-17.5c-2.2,0-36.6,3.6-61.8,6.3c-15.9,1.7-28.5,3-29,3
			c-1.3,0-30,21.2-30.2,21.4c0,0-0.1,0-0.1,0c0,0,0-0.1,0-0.1c1.2-0.9,29-21.4,30.3-21.4c0.5,0,13.1-1.3,29-3
			c25.2-2.6,59.6-6.3,61.8-6.3c2.6,0,34.6,11,53.7,17.5c7.2,2.5,12.4,4.3,13.3,4.5c0.4,0.1,2.3,1.5,5.4,3.7
			c7.7,5.5,21.9,15.7,37.2,23.8c18.7,9.9,33,13.4,42.4,10.4c5.6-1.8,9.5-5.8,11.6-12.1c8.6-24.7,10.4-43.4,11.9-58.5
			c0.9-9.1,1.7-16.9,3.7-24c5.3-18.7,18.3-82.8,18.5-83.4c0-0.2,2.8-22.4,8.4-34.8c1.3-2.9,4.1-6.4,8.5-10.5
			c3.5-3.3,7.9-6.9,13.1-10.8c8.9-6.6,17.2-11.8,17.3-11.8c0,0,0.1,0,0.1,0c0,0,0,0.1,0,0.1c-0.1,0.1-8.4,5.2-17.3,11.8
			c-14.8,11.1-19.9,17.7-21.5,21.2c-5.6,12.4-8.3,34.6-8.4,34.8c-0.1,0.6-13.1,64.8-18.5,83.5c-2,7.1-2.8,14.9-3.7,24
			c-1.5,15.1-3.4,33.8-12,58.5c-2.2,6.3-6.1,10.4-11.7,12.2C434.6,471.6,432.2,471.9,429.5,471.9z"/>
		<path class="st2" d="M288.7,466.4C288.7,466.4,288.7,466.4,288.7,466.4c-6.4-2.1-28.5-6-56.4-10.8
			c-43.3-7.5-102.6-17.8-140.6-28.4c0,0,0,0,0,0C77,415,61.6,398.1,44.6,375.6c-14.2-18.7-29.8-41.8-47.6-70.5c0,0,0-0.1,0-0.1
			c0,0,0.1,0,0.1,0c17.9,28.7,33.5,51.8,47.6,70.5c17,22.5,32.4,39.3,47.1,51.6c38,10.5,97.3,20.8,140.6,28.4
			C260.2,460.3,282.3,464.2,288.7,466.4C288.7,466.3,288.8,466.4,288.7,466.4C288.7,466.4,288.7,466.4,288.7,466.4z"/>
		<path class="st2" d="M69,608.8c-0.1,0-0.1,0-0.2,0c0,0,0,0,0-0.1c0,0,0,0,0.1,0c0.4,0.1,0.8-0.1,1.2-0.8
			c4.4-6.8,11.9-51.6,16.9-92.4c2.8-22.3,4.8-43.1,5.8-58.6c1.1-17.6,0.7-27.8-1-29.6c0,0,0-0.1,0-0.1c0,0,0.1,0,0.1,0
			c2.2,2.3,1.8,17.4,1.1,29.7c-0.9,15.5-3,36.3-5.8,58.6c-2.7,21.8-5.8,43-8.8,59.7c-3.3,18.3-6.1,29.6-8.1,32.8
			C69.7,608.5,69.3,608.8,69,608.8z"/>
		<path class="st2" d="M205,343C205,343,205,343,205,343C205,343,205,343,205,343c0-0.2,5.2-12.7,7.2-29.6c1-8.8-0.4-18.2-1.8-24.4
			c-1.5-6.8-3.3-11.5-3.3-11.6c0,0,0-0.1,0-0.1c0,0,0.1,0,0.1,0c0,0,1.8,4.8,3.3,11.6c1.4,6.3,2.8,15.6,1.8,24.5
			C210.3,330.4,205.1,342.9,205,343C205.1,343,205,343,205,343z"/>
		<path class="st2" d="M210.7,324.8C210.7,324.8,210.7,324.8,210.7,324.8C210.6,324.8,210.7,324.7,210.7,324.8l29.4-26.9H212
			c0,0,0,0,0,0s0,0,0,0h28.2c0,0,0,0,0,0c0,0,0,0,0,0.1L210.7,324.8C210.7,324.8,210.7,324.8,210.7,324.8z"/>
		<path class="st2" d="M240.2,297.9C240.2,297.9,240.2,297.9,240.2,297.9C240.2,297.9,240.2,297.9,240.2,297.9
			c0.4-1.4,50.1-146.9,50.6-148.4c0,0,0,0,0.1,0c0,0,0,0,0,0.1C290.4,151.1,240.7,296.6,240.2,297.9
			C240.3,297.9,240.2,297.9,240.2,297.9z"/>
		<path class="st2" d="M331.4,342.4C331.4,342.4,331.4,342.4,331.4,342.4L293.5,295l-43.3-24.1c0,0,0,0,0-0.1c0,0,0,0,0.1,0
			l43.3,24.2c0,0,0,0,0,0L331.4,342.4C331.5,342.3,331.5,342.3,331.4,342.4C331.5,342.4,331.5,342.4,331.4,342.4z"/>
		<path class="st2" d="M240.3,364.6C240.3,364.6,240.2,364.6,240.3,364.6C240.2,364.5,240.2,364.5,240.3,364.6
			c2.7-0.2,7.9-4.4,15.3-12.4c6.3-6.9,14.1-16.4,22.4-27.5c15.7-21,29.4-42.1,30.6-47.1c0.9-4.1,2.4-16,4.1-28.7
			c1.2-9.7,2.5-19.7,3.7-27.4c1.7-11.4,2.4-12.9,2.8-12.9c0,0,0,0,0,0c0,0,0,0,0,0.1c0,0,0,0-0.1,0c-0.2,0-0.5,0.4-1.2,3.5
			c-0.4,2.1-1,5.2-1.6,9.4c-1.2,7.7-2.4,17.7-3.7,27.4c-1.6,12.7-3.2,24.6-4.1,28.7c-1.1,5-14.8,26.1-30.6,47.1
			c-8.3,11.1-16.1,20.6-22.4,27.5C248.2,360.3,243.1,364.5,240.3,364.6C240.3,364.6,240.3,364.6,240.3,364.6z"/>
		<path class="st2" d="M314.3,236.8C314.3,236.8,314.3,236.8,314.3,236.8C314.3,236.7,314.2,236.7,314.3,236.8
			c0.8-7.3,10.2-14.1,15.7-17.6c8.1-5,16.2-8.1,19.2-8.1c0,0,0,0,0,0s0,0,0,0c-2.9,0-11.1,3.1-19.1,8.1
			C324.6,222.7,315.2,229.5,314.3,236.8C314.3,236.7,314.3,236.8,314.3,236.8z"/>
		<path class="st2" d="M340.1,278.1C340.1,278.1,340.1,278.1,340.1,278.1c-1.9-0.3-7.2-4-15.9-11.1c-6.4-5.3-12.4-10.5-12.5-10.6
			c0,0,0,0,0-0.1c0,0,0,0,0.1,0C312,256.6,335.6,277.4,340.1,278.1C340.1,278.1,340.1,278.1,340.1,278.1
			C340.1,278.1,340.1,278.1,340.1,278.1z"/>
		<path class="st2" d="M473.3,280.5L473.3,280.5c-1.6,0-161.1-2.8-163.3-2.8c0,0,0,0,0,0s0,0,0,0
			C312.3,277.5,471.7,280.3,473.3,280.5C473.4,280.4,473.4,280.4,473.3,280.5C473.4,280.4,473.4,280.5,473.3,280.5z"/>
		<path class="st2" d="M468.2,351.2C468.1,351.2,468.1,351.2,468.2,351.2C468.1,351.1,468.1,351.1,468.2,351.2
			c0.1-0.2,15.1-5.8,29.9-13.5c8.7-4.6,15.6-8.9,20.6-13c6.2-5.1,9.4-9.8,9.4-13.9c0,0,0,0,0,0l0,0c0,0,0,0,0,0
			c0,4.1-3.2,8.8-9.5,14c-5,4.1-11.9,8.5-20.6,13.1C483.3,345.5,468.3,351.1,468.2,351.2C468.2,351.2,468.2,351.2,468.2,351.2z"/>
		<path class="st2" d="M104.6,329C104.5,329,104.5,329,104.6,329c-2.6-4.5-0.2-13.9,6.1-23.9c2.7-4.2,13.2-10.1,31.4-17.5
			c13.4-5.4,26.4-9.8,27.8-10.3l0,0c0,0,0.1,0,0.1,0c0,0,0,0.1,0,0.1l0,0c-1.4,0.5-14.4,4.8-27.8,10.3c-12.5,5.1-28,12.2-31.3,17.4
			C104.4,315.1,102,324.4,104.6,329C104.6,328.9,104.6,329,104.6,329C104.6,329,104.6,329,104.6,329z"/>
		<path class="st2" d="M69.6,316.4C69.5,316.4,69.5,316.3,69.6,316.4c0-4.6-4.3-10-8.4-15.3c-4.1-5.3-8-10.3-6.6-13.5
			c1.2-2.6,4.5-3.4,9.5-2.5c3.8,0.7,7.3,2.2,7.3,2.2c0,0,0,0,0,0.1s0,0-0.1,0c0,0-3.5-1.5-7.3-2.2c-3.5-0.6-8-0.7-9.4,2.5
			c-1.4,3.1,2.4,8.1,6.5,13.4C65.4,306.3,69.6,311.7,69.6,316.4C69.6,316.3,69.6,316.4,69.6,316.4z"/>
		<path class="st2" d="M418.7,122C418.7,122,418.7,122,418.7,122C418.6,121.9,418.6,121.9,418.7,122c3.9-1.5,13.7-4.7,24.7-7.6
			c9.3-2.4,22.2-5.4,31-5.7c0.6,0,1.2,0,1.8,0c8.9,0,11.7,2.4,15.6,5.6c2.3,2,4.9,4.2,9.5,6.4c0,0,0,0,0,0.1c0,0,0,0-0.1,0
			c-4.6-2.2-7.2-4.4-9.5-6.4c-3.8-3.2-6.6-5.6-15.5-5.6c-0.6,0-1.2,0-1.8,0c-8.8,0.3-21.7,3.3-31,5.7
			C432.4,117.4,422.6,120.6,418.7,122C418.7,122,418.7,122,418.7,122z"/>
		<path class="st2" d="M472,109C472,109,471.9,108.9,472,109C471.9,108.9,472,108.9,472,109c6.9-1,21.2-5.8,26.1-17.8c0,0,0,0,0.1,0
			c0,0,0,0,0,0.1C493.2,103.2,478.9,108.1,472,109C472,109,472,109,472,109z"/>
		<path class="st2" d="M528,295.1C528,295.1,528,295.1,528,295.1c-2.6-1.7-45.5,0-46,0c0,0,0,0,0,0c0,0,0,0,0,0c0,0,0-0.1,0-0.1
			C483.8,294.9,525.4,293.3,528,295.1C528,295,528,295.1,528,295.1C528,295.1,528,295.1,528,295.1z"/>
		<path class="st2" d="M579.6,106.2"/>
		<path class="st2" d="M537.3,165.7C537.2,165.7,537.2,165.7,537.3,165.7l-7.6-8.2c0,0,0-0.1,0-0.1c0,0,0.1,0,0.1,0L537.3,165.7
			C537.3,165.6,537.3,165.7,537.3,165.7C537.3,165.7,537.3,165.7,537.3,165.7z"/>
		<path class="st2" d="M240.2,297.9C240.2,297.9,240.2,297.9,240.2,297.9C240.2,297.9,240.2,297.8,240.2,297.9
			c0.1-0.1,9.8-2.6,20-4.8c13.8-3,21.9-4.1,24.1-3.3c0,0,0,0,0,0.1c0,0,0,0-0.1,0c-2.8-0.9-14.6,1.3-24.1,3.3
			C250,295.4,240.3,297.9,240.2,297.9C240.2,297.9,240.2,297.9,240.2,297.9z"/>
		<path class="st2" d="M473.3,280.5C473.3,280.5,473.3,280.4,473.3,280.5C473.3,280.4,473.3,280.4,473.3,280.5
			c0.9-0.2,1.6-0.2,2.4-0.3c3.5-0.2,6-0.4,9.9-5.2c0,0,0,0,0.1,0c0,0,0,0,0,0.1c-4,4.8-6.5,5-10,5.2
			C475,280.3,474.2,280.4,473.3,280.5C473.3,280.5,473.3,280.5,473.3,280.5z"/>
		<path class="st2" d="M481.8,296.4C481.8,296.4,481.8,296.4,481.8,296.4C481.7,296.4,481.7,296.4,481.8,296.4
			c1-5.1,0.3-9.6-1.9-12.6c-1.5-2-3.8-3.2-6.5-3.4c0,0,0,0,0-0.1c0,0,0,0,0,0c0,0,0,0,0,0c2.7,0.2,5,1.3,6.6,3.4
			C482.2,286.8,482.9,291.3,481.8,296.4C481.8,296.4,481.8,296.4,481.8,296.4z"/>
		<path class="st2" d="M494.2,260.9"/>
		<path class="st2" d="M494.2,256.4"/>
		<path class="st2" d="M487.9,270.8"/>
		<path class="st2" d="M482.8,280.4"/>
		<path class="st2" d="M531.5,240.4C531.4,240.4,531.4,240.4,531.5,240.4c-1.4-4.5-3.4-7.2-6.1-8.1c-2.8-1-6.4-0.1-10.8,2.9
			c0,0-0.1,0-0.1,0c0,0,0-0.1,0-0.1c4.5-3,8-3.9,10.9-2.9C528.1,233.1,530.1,235.9,531.5,240.4C531.5,240.4,531.5,240.4,531.5,240.4
			C531.5,240.4,531.5,240.4,531.5,240.4z"/>
		<path class="st2" d="M447.8,121.9"/>
	</g>
	<g>
		<path class="st3" d="M511.7,321.5"/>
		<path class="st3" d="M437.5,12.6"/>
		<path class="st3" d="M511.7,321.5"/>
		<path class="st3" d="M212.2,353.2"/>
		<path class="st3" d="M635.6,396.8"/>
		<path class="st3" d="M679.6-8.3c0,0-90.2,52.8-101.8,60.6c-11.6,7.8-14.7,35.1-20,46.7c-1,2.3-12.1,10.6-12.3,10.7
			c-1,0.5-12.3,8.4-34.7,10.2c-1.7,0.1-31.4,2.8-31.4,2.8l-104.6-1.3c0,0-42.8,31.2-52.1,30.6s-35.2-3.1-42.3-2.5
			c-7.1,0.7-14.4-0.5-31.9,12.9s-28.8,31.7-33.5,41.8c-4.8,10.1-6.8,73.4-7.9,73.2c-1.2-0.2-37.8,0.8-37.3,0
			c0.5-0.8,5.6-42.3,1.2-44.3c-13.2-5.8-57.2-4.7-99.5,54.2l0,0c0,0-4.4,35.5,0,37.7c4.4,2.1,33,4,33,4s6.7,11.8,8.6,14
			c6.1,7.1,81.3,3.5,91.9,0c0,0,23,21.3,23.6,21.5c0.7,0.2,51.1,0,51.1,0c33.6,0.9,46.7-10.7,51.7-22.1c0,0,141.3-2.5,140.9-0.7
			c-5.4,20.6-170.9,107.2-177.2,114.1c-6.4,6.9-6.4,10.7-6.4,10.7s20.4,1.8,58,19.8s104.2,120.7,104.2,120.7"/>
		<path class="st3" d="M467.3,136.9"/>
		<path class="st3" d="M564.8,105.5c0,0,153.7,1.3,154.2,0.5c4.4-8.3,6-26.1,6-26.1s0-24-5.3-28.9c-6.5-6.1-26.4-6.7-31.8-2.5
			c-5.4,4.2-0.6,19.9-5,23.3c-8.9,6.9-11.5,4.6-10.9,17.8c0.6,13.2-6.2,16.7-6.2,16.7"/>
		<line class="st3" x1="679.6" y1="74.2" x2="724.8" y2="74.2"/>
		<path class="st3" d="M720.4,102.8c0,0,4,60.5-0.7,65.5c-4.7,5-18.4,3.1-21,2.6c-0.6-0.1-26.4-2.7-37.5-3.8
			c-34.5-3.5-106.3-8.8-106.3-8.8s11.8-41.7,10.6-50.1c-1.2-8.4-7.9-8.4-7.9-8.4"/>
		<path class="st3" d="M562.1,130c2.7-8.9,30.2-24.2,38.8-24.2"/>
		<path class="st3" d="M661.9,106.3c0,0-1.1,38.7-2,41.9c-2.6,9.3-14.6,17.4-14.6,17.4"/>
		<path class="st3" d="M689.3,106.3c0,0-0.3,46-2.3,53.6c-2,7.7-23.8,7.5-23.8,7.5"/>
		<path class="st3" d="M374.9,121.4l29.2-33.5l50.7-7.3l43.3,10.6l16.4-32.4l22.7-6.6l17.6,23.9v25.5l-33.6,16.9
			c0,0,8.5,14.9,8.5,20s0,19,0,19s-86.2,1.2-102,0c-17.7-1.4-37.1-4.2-38.4-14.1c-1.3-9.9,0-21.8,0-21.8"/>
		<line class="st3" x1="454.8" y1="122.4" x2="454.8" y2="157.5"/>
		<path class="st3" d="M322.8,152c0,0-3.4,57-3.8,58.3c-0.4,1.3,201,1.8,205,1.4c4-0.4,13.2-46,13.2-46l17.6-7.3"/>
		<path class="st3" d="M321.4,175.8c0.6-8,38.1-43.6,41.5-45.9"/>
		<path class="st3" d="M524.6,209.8c11.4,26.7,7.3,65.3,3.4,102.3l-6.6,91.2l-14.1,201.4"/>
		<line class="st3" x1="529.7" y1="294.1" x2="784.4" y2="321.5"/>
		<line class="st3" x1="526.6" y1="207.5" x2="786.2" y2="232.8"/>
		<path class="st3" d="M747.9,229.1c-0.4,1.8-13.7,369.4-13.7,369.4"/>
		<line class="st3" x1="605.1" y1="604.7" x2="789.3" y2="458"/>
		<path class="st3" d="M163.7,441.5c0,0,29-21.4,30.3-21.4c1.3,0,87.3-9.3,90.8-9.3s63.9,21.2,67,22c3.1,0.9,82.8,66.2,96.8,25.8
			c13.7-39.5,10.3-63.6,15.7-82.5c5.4-18.9,18.5-83.5,18.5-83.5s2.7-22.3,8.4-34.8c5.7-12.6,38.8-33.1,38.8-33.1"/>
		<path class="st3" d="M-3,305.1c31.9,51.2,63.6,96.1,94.7,122.1c62.4,17.3,180.6,33.7,197,39.2"/>
		<path class="st3" d="M91.7,427.2c8,8.3-15.1,184.5-22.9,181.6"/>
		<path class="st3" d="M207.2,277.4c0,0,7.1,18.9,5.1,36c-2,17.1-7.2,29.6-7.2,29.6"/>
		<path class="st3" d="M210.7,324.8l29.5-26.9l-28.2,0"/>
		<path class="st3" d="M240.2,297.9c0.4-1.3,50.7-148.3,50.7-148.3"/>
		<polyline class="st3" points="250.2,270.8 293.5,295 331.4,342.3 		"/>
		<path class="st3" d="M240.3,364.5c11.9-0.5,66.1-76.9,68.4-86.9c2.3-10.2,8.4-69.3,10.6-69"/>
		<path class="st3" d="M349.2,211.1c-6.1,0-33.4,13.2-34.9,25.6"/>
		<path class="st3" d="M340.1,278.1c-4.5-0.7-28.3-21.7-28.3-21.7"/>
		<path class="st3" d="M310.1,277.6c2.2,0,163.3,2.8,163.3,2.8"/>
		<path class="st3" d="M528.1,310.7c-0.2,18.1-60,40.4-60,40.4"/>
		<path class="st3" d="M169.8,277.4c-1.3,0.4-52.8,17.6-59.2,27.7c-6.4,10.1-8.6,19.4-6.1,23.9"/>
		<path class="st3" d="M71.5,287.3c0,0-13.9-5.9-16.8,0.3s14.9,19.4,14.9,28.7"/>
		<path class="st3" d="M418.7,121.9c7.9-2.9,39.4-12.6,55.7-13.2s14.3,6,26.9,12"/>
		<path class="st3" d="M472,108.9c7.7-1,21.4-6.2,26.1-17.8"/>
		<path class="st3" d="M528,295.1c-2.6-1.8-46,0-46,0"/>
		<path class="st3" d="M579.6,106.2"/>
		<line class="st3" x1="529.7" y1="157.5" x2="537.3" y2="165.7"/>
		<path class="st3" d="M240.2,297.9c0,0,38.7-9.9,44.1-8"/>
		<path class="st3" d="M473.3,280.4c4.8-0.5,7.5,0.5,12.4-5.4l0,0"/>
		<path class="st3" d="M481.8,296.4c1.7-8.1-1.1-15.5-8.4-16"/>
		<path class="st3" d="M494.2,260.9"/>
		<path class="st3" d="M494.2,256.4"/>
		<path class="st3" d="M487.9,270.8"/>
		<path class="st3" d="M482.8,280.4"/>
		<path class="st3" d="M514.5,235.1c6.3-4.2,13.4-6.2,16.9,5.2"/>
		<path class="st3" d="M447.8,121.9"/>
	</g>
</g>
<g id="Pitches">
	<g id="p-T7">
		<circle class="st4" cx="159.3" cy="244.5" r="7.9"/>
		<text transform="matrix(0.807 0 0 1 156.9539 247.2845)" class="st5 st6 st7">T7</text>
	</g>
	<g id="p-T5">
		<circle class="st4" cx="131.1" cy="220.7" r="7.9"/>
		<text transform="matrix(0.807 0 0 1 128.0518 223.2155)" class="st5 st6 st7">T5</text>
	</g>
	<g id="p-T6">
		<circle class="st4" cx="139" cy="249.3" r="7.9"/>
		<text transform="matrix(0.807 0 0 1 136.3624 251.9751)" class="st5 st6 st7">T6</text>
	</g>
	<g id="p-T4">
		<circle class="st4" cx="121.8" cy="257.2" r="7.9"/>
		<text transform="matrix(0.807 0 0 1 118.9968 259.4751)" class="st5 st6 st7">T4</text>
	</g>
	<g id="p-T3">
		<circle class="st4" cx="101" cy="272.7" r="7.9"/>
		<text transform="matrix(0.807 0 0 1 98.2256 275.0823)" class="st5 st6 st7">T3</text>
	</g>
	<g id="p-T2">
		<circle class="st4" cx="47" cy="281.2" r="7.9"/>
		<text transform="matrix(0.807 0 0 1 44.274 283.8898)" class="st5 st6 st7">T2</text>
	</g>
	<g id="p-124">
		<circle class="st4" cx="194.3" cy="325.8" r="7.9"/>
		<text transform="matrix(0.807 0 0 1 190.4424 328.3473)" class="st5 st6 st8">124</text>
	</g>
	<g id="p-123">
		<circle class="st4" cx="167.8" cy="328.2" r="7.9"/>
		<text transform="matrix(0.807 0 0 1 163.8511 330.8511)" class="st5 st6 st8">123</text>
	</g>
	<g id="p-122">
		<circle class="st4" cx="160" cy="360.3" r="7.9"/>
		<text transform="matrix(0.807 0 0 1 155.9385 362.9683)" class="st5 st6 st8">122</text>
	</g>
	<g id="p-121">
		<circle class="st4" cx="142.9" cy="333.3" r="7.9"/>
		<text transform="matrix(0.807 0 0 1 139.4045 335.8473)" class="st5 st6 st8">121</text>
	</g>
	<g id="p-120">
		<circle class="st4" cx="127.5" cy="362.7" r="7.9"/>
		<text transform="matrix(0.807 0 0 1 123.5983 365.2016)" class="st5 st6 st8">120</text>
	</g>
	<g id="p-119">
		<circle class="st4" cx="103" cy="352.6" r="7.9"/>
		<text transform="matrix(0.807 0 0 1 99.6113 355.4537)" class="st5 st6 st8">119</text>
	</g>
	<g id="p-118">
		<circle class="st4" cx="88.7" cy="342.7" r="7.9"/>
		<text transform="matrix(0.807 0 0 1 85.0684 345.2492)" class="st5 st6 st8">118</text>
	</g>
	<g id="p-117">
		<circle class="st4" cx="117.5" cy="326.5" r="7.9"/>
		<text transform="matrix(0.807 0 0 1 114.1814 329.273)" class="st5 st6 st8">117</text>
	</g>
	<g id="p-116">
		<circle class="st4" cx="92.7" cy="307" r="7.9"/>
		<text transform="matrix(0.807 0 0 1 89.035 309.5115)" class="st5 st6 st8">116</text>
	</g>
	<g id="p-115">
		<circle class="st4" cx="51.3" cy="312.3" r="7.9"/>
		<text transform="matrix(0.807 0 0 1 47.4318 315.0324)" class="st5 st6 st9">115</text>
	</g>
	<g id="p-114">
		<circle class="st4" cx="110.6" cy="287.2" r="7.9"/>
		<text transform="matrix(0.807 0 0 1 107.0513 289.6878)" class="st5 st6 st8">114</text>
	</g>
	<g id="p-113">
		<circle class="st4" cx="138.3" cy="303.4" r="7.9"/>
		<text transform="matrix(0.807 0 0 1 134.7535 305.8906)" class="st5 st6 st8">113</text>
	</g>
	<g id="p-112">
		<circle class="st4" cx="131.1" cy="273.1" r="7.9"/>
		<text transform="matrix(0.807 0 0 1 127.3326 275.4189)" class="st5 st6 st8">112</text>
	</g>
	<g id="p-111">
		<circle class="st4" cx="160" cy="294.2" r="7.9"/>
		<text transform="matrix(0.807 0 0 1 157.1898 296.935)" class="st5 st6 st8">111</text>
	</g>
	<g id="p-110">
		<circle class="st4" cx="157.2" cy="266.3" r="7.9"/>
		<text transform="matrix(0.807 0 0 1 153.6215 268.9396)" class="st5 st6 st8">110</text>
	</g>
	<g id="p-109">
		<circle class="st4" cx="181.7" cy="290.4" r="7.9"/>
		<text transform="matrix(0.807 0 0 1 177.1556 292.9012)" class="st5 st6 st8">109</text>
	</g>
	<g id="p-108A">
		<circle class="st4" cx="440.8" cy="324.3" r="7.9"/>
		<text transform="matrix(0.807 0 0 1 435.602 326.7692)" class="st5 st6 st8">108A</text>
	</g>
	<g id="p-108">
		<circle class="st4" cx="399.9" cy="324.3" r="7.9"/>
		<text transform="matrix(0.807 0 0 1 395.8431 326.7692)" class="st5 st6 st8">108</text>
	</g>
	<g id="p-107">
		<circle class="st4" cx="372.4" cy="324.3" r="7.9"/>
		<text transform="matrix(0.807 0 0 1 368.7662 326.7692)" class="st5 st6 st8">107</text>
	</g>
	<g id="p-106">
		<circle class="st4" cx="343.3" cy="324.3" r="7.9"/>
		<text transform="matrix(0.807 0 0 1 339.391 326.7692)" class="st5 st6 st8">106</text>
	</g>
	<g id="p-105">
		<circle class="st4" cx="311.8" cy="342.1" r="7.9"/>
		<text transform="matrix(0.807 0 0 1 307.7849 344.5882)" class="st5 st6 st8">105</text>
	</g>
	<g id="p-104">
		<circle class="st4" cx="286.4" cy="274.9" r="7.9"/>
		<text transform="matrix(0.807 0 0 1 282.4761 277.389)" class="st5 st6 st8">104</text>
	</g>
	<g id="p-103">
		<circle class="st4" cx="281.4" cy="350" r="7.9"/>
		<text transform="matrix(0.807 0 0 1 277.3359 352.6264)" class="st5 st6 st8">103</text>
	</g>
	<g id="p-102">
		<circle class="st4" cx="343.3" cy="355" r="7.9"/>
		<text transform="matrix(0.807 0 0 1 339.4012 357.7016)" class="st5 st6 st8">102</text>
	</g>
	<g id="p-100">
		<circle class="st4" cx="272.5" cy="381.5" r="7.9"/>
		<text transform="matrix(0.807 0 0 1 268.4187 383.9554)" class="st5 st6 st8">100</text>
	</g>
	<g id="p-99">
		<circle class="st4" cx="220.2" cy="340.6" r="7.9"/>
		<text transform="matrix(0.807 0 0 1 217.163 343.1117)" class="st5 st6 st8">99</text>
	</g>
	<g id="p-98">
		<circle class="st4" cx="233.4" cy="381.5" r="7.9"/>
		<text transform="matrix(0.807 0 0 1 230.0528 383.9554)" class="st5 st6 st8">98</text>
	</g>
	<g id="p-96">
		<circle class="st4" cx="182.2" cy="357.4" r="7.9"/>
		<text transform="matrix(0.807 0 0 1 179.2209 360.2056)" class="st5 st6 st8">96</text>
	</g>
	<g id="p-95B">
		<circle class="st4" cx="247.8" cy="309.9" r="7.9"/>
		<text transform="matrix(0.807 0 0 1 243.2742 312.4471)" class="st5 st6 st8">95B</text>
	</g>
	<g id="p-95A">
		<circle class="st4" cx="268" cy="306.3" r="7.9"/>
		<text transform="matrix(0.807 0 0 1 263.6094 308.8262)" class="st5 st6 st8">95A</text>
	</g>
	<g id="p-95">
		<circle class="st4" cx="298.4" cy="318" r="7.9"/>
		<text transform="matrix(0.807 0 0 1 295.4164 320.4773)" class="st5 st6 st8">95</text>
	</g>
	<g id="p-94">
		<circle class="st4" cx="199.2" cy="303.4" r="7.9"/>
		<text transform="matrix(0.807 0 0 1 196.3591 305.8906)" class="st5 st6 st8">94</text>
	</g>
	<g id="p-93A">
		<circle class="st4" cx="183.1" cy="263.4" r="7.9"/>
		<text transform="matrix(0.807 0 0 1 178.4002 266.1307)" class="st5 st6 st9">93A</text>
	</g>
	<g id="p-98A">
		<circle class="st4" cx="205.6" cy="365.2" r="7.9"/>
		<text transform="matrix(0.807 0 0 1 200.9753 367.9233)" class="st5 st6 st9">98A</text>
	</g>
	<g id="p-93">
		<circle class="st4" cx="194.3" cy="245.7" r="7.9"/>
		<text transform="matrix(0.807 0 0 1 191.3047 248.2488)" class="st5 st6 st8">93</text>
	</g>
	<g id="p-92">
		<circle class="st4" cx="221.8" cy="280.8" r="7.9"/>
		<text transform="matrix(0.807 0 0 1 218.7453 283.5391)" class="st5 st6 st9">92</text>
	</g>
	<g id="p-91">
		<circle class="st4" cx="198.4" cy="219.5" r="7.9"/>
		<text transform="matrix(0.807 0 0 1 195.864 222.4249)" class="st5 st6 st8">91</text>
	</g>
	<g id="p-90">
		<circle class="st4" cx="225.5" cy="231.7" r="7.9"/>
		<text transform="matrix(0.807 0 0 1 222.5489 234.1044)" class="st5 st6 st8">90</text>
	</g>
	<g id="p-88">
		<circle class="st4" cx="243.4" cy="183" r="7.9"/>
		<text transform="matrix(0.807 0 0 1 240.4492 185.5352)" class="st5 st6 st8">88</text>
	</g>
	<g id="p-89">
		<circle class="st4" cx="205.1" cy="195.3" r="7.9"/>
		<text transform="matrix(0.807 0 0 1 202.113 197.7952)" class="st5 st6 st8">89</text>
	</g>
	<g id="p-87">
		<circle class="st4" cx="220.2" cy="169.7" r="7.9"/>
		<text transform="matrix(0.807 0 0 1 217.5975 172.1551)" class="st5 st6 st8">87</text>
	</g>
	<g id="p-85">
		<circle class="st4" cx="256.2" cy="139.4" r="7.9"/>
		<text transform="matrix(0.807 0 0 1 253.0367 142.1388)" class="st5 st6 st9">85</text>
	</g>
	<g id="p-86">
		<circle class="st4" cx="233.9" cy="154.7" r="7.9"/>
		<text transform="matrix(0.807 0 0 1 230.6959 157.3804)" class="st5 st6 st9">86</text>
	</g>
	<g id="p-84A">
		<circle class="st4" cx="476.6" cy="252.7" r="7.9"/>
		<text transform="matrix(0.807 0 0 1 472.3471 255.1965)" class="st5 st6 st8">84A</text>
	</g>
	<g id="p-84">
		<circle class="st4" cx="488.7" cy="239.9" r="7.9"/>
		<text transform="matrix(0.807 0 0 1 485.8603 242.4283)" class="st5 st6 st8">84</text>
	</g>
	<g id="p-83">
		<circle class="st4" cx="460.3" cy="306.3" r="7.9"/>
		<text transform="matrix(0.807 0 0 1 457.3455 308.8262)" class="st5 st6 st8">83</text>
	</g>
	<g id="p-82">
		<circle class="st4" cx="467.6" cy="266.8" r="7.9"/>
		<text transform="matrix(0.807 0 0 1 464.538 269.2678)" class="st5 st6 st8">82</text>
	</g>
	<g id="p-81">
		<circle class="st4" cx="437" cy="294.8" r="7.9"/>
		<text transform="matrix(0.807 0 0 1 434.473 297.3268)" class="st5 st6 st8">81</text>
	</g>
	<g id="p-80">
		<circle class="st4" cx="447.9" cy="263.8" r="7.9"/>
		<text transform="matrix(0.807 0 0 1 444.8807 266.3322)" class="st5 st6 st8">80</text>
	</g>
	<g id="p-79">
		<circle class="st4" cx="412.9" cy="294.8" r="7.9"/>
		<text transform="matrix(0.807 0 0 1 409.9064 297.3268)" class="st5 st6 st8">79</text>
	</g>
	<g id="p-78">
		<circle class="st4" cx="425.9" cy="263.8" r="7.9"/>
		<text transform="matrix(0.807 0 0 1 423.2896 266.3322)" class="st5 st6 st8">78</text>
	</g>
	<g id="p-77">
		<circle class="st4" cx="387.6" cy="294.4" r="7.9"/>
		<text transform="matrix(0.807 0 0 1 385.4449 296.9351)" class="st5 st6 st8">77</text>
	</g>
	<g id="p-76">
		<circle class="st4" cx="403.5" cy="264.2" r="7.9"/>
		<text transform="matrix(0.807 0 0 1 400.9203 266.698)" class="st5 st6 st8">76</text>
	</g>
	<g id="p-75">
		<circle class="st4" cx="366.6" cy="293.3" r="7.9"/>
		<text transform="matrix(0.807 0 0 1 364.0471 295.8368)" class="st5 st6 st8">75</text>
	</g>
	<g id="p-74">
		<circle class="st4" cx="367.4" cy="263.8" r="7.9"/>
		<text transform="matrix(0.807 0 0 1 365.173 266.3322)" class="st5 st6 st8">74</text>
	</g>
	<g id="p-73">
		<circle class="st4" cx="343.3" cy="293.4" r="7.9"/>
		<text transform="matrix(0.807 0 0 1 340.8802 295.8368)" class="st5 st6 st8">73</text>
	</g>
	<g id="p-72">
		<circle class="st4" cx="342.6" cy="263.4" r="7.9"/>
		<text transform="matrix(0.807 0 0 1 340.1342 265.9131)" class="st5 st6 st8">72</text>
	</g>
	<g id="p-71">
		<circle class="st4" cx="316.5" cy="294.1" r="7.9"/>
		<text transform="matrix(0.807 0 0 1 314.1392 296.3637)" class="st5 st6 st8">71</text>
	</g>
	<g id="p-70">
		<circle class="st4" cx="317.1" cy="270.6" r="7.9"/>
		<text transform="matrix(0.807 0 0 1 314.5327 273.0642)" class="st5 st6 st8">70</text>
	</g>
	<g id="p-69A">
		<circle class="st4" cx="268.8" cy="263.4" r="7.9"/>
		<text transform="matrix(0.807 0 0 1 264.42 265.9131)" class="st5 st6 st8">69A</text>
	</g>
	<g id="p-69">
		<circle class="st4" cx="277.2" cy="243" r="7.9"/>
		<text transform="matrix(0.807 0 0 1 274.1534 245.4674)" class="st5 st6 st8">69</text>
	</g>
	<g id="p-68">
		<circle class="st4" cx="285.4" cy="219.9" r="7.9"/>
		<text transform="matrix(0.807 0 0 1 282.397 222.4249)" class="st5 st6 st8">68</text>
	</g>
	<g id="p-67A">
		<circle class="st4" cx="250.3" cy="228.8" r="7.9"/>
		<text transform="matrix(0.807 0 0 1 246.058 231.5616)" class="st5 st6 st9">67A</text>
	</g>
	<g id="p-67">
		<circle class="st4" cx="257.2" cy="208.3" r="7.9"/>
		<text transform="matrix(0.807 0 0 1 254.625 210.845)" class="st5 st6 st8">67</text>
	</g>
	<g id="p-66">
		<circle class="st4" cx="294.6" cy="190.7" r="7.9"/>
		<text transform="matrix(0.807 0 0 1 291.5617 193.2531)" class="st5 st6 st8">66</text>
	</g>
	<g id="p-65">
		<circle class="st4" cx="297.4" cy="135.7" r="7.9"/>
		<text transform="matrix(0.807 0 0 1 294.2109 138.4537)" class="st5 st6 st9">65</text>
	</g>
	<g id="p-64">
		<circle class="st4" cx="298" cy="167.1" r="7.9"/>
		<text transform="matrix(0.807 0 0 1 295.5189 169.6513)" class="st5 st6 st8">64</text>
	</g>
	<g id="p-63">
		<circle class="st4" cx="319.1" cy="129.6" r="7.9"/>
		<text transform="matrix(0.807 0 0 1 316.1191 132.6013)" class="st5 st6 st8">63</text>
	</g>
	<g id="p-62">
		<circle class="st4" cx="323.7" cy="219.9" r="7.9"/>
		<text transform="matrix(0.807 0 0 1 320.6666 222.6425)" class="st5 st6 st9">62</text>
	</g>
	<g id="p-61">
		<circle class="st4" cx="351.2" cy="115.7" r="7.9"/>
		<text transform="matrix(0.807 0 0 1 348.6644 118.3592)" class="st5 st6 st7">61</text>
	</g>
	<g id="p-60A">
		<circle class="st4" cx="350.8" cy="223.7" r="7.9"/>
		<text transform="matrix(0.807 0 0 1 346.4393 225.9974)" class="st5 st6 st8">60A</text>
	</g>
	<g id="p-60">
		<circle class="st4" cx="371.6" cy="224.6" r="7.9"/>
		<text transform="matrix(0.807 0 0 1 368.5826 227.0956)" class="st5 st6 st8">60</text>
	</g>
	<g id="p-59A">
		<circle class="st4" cx="356" cy="161.3" r="7.9"/>
		<text transform="matrix(0.807 0 0 1 351.5592 163.8225)" class="st5 st6 st8">59A</text>
	</g>
	<g id="p-59">
		<circle class="st4" cx="335.4" cy="181.7" r="7.9"/>
		<text transform="matrix(0.807 0 0 1 332.637 184.1539)" class="st5 st6 st8">59</text>
	</g>
	<g id="p-58">
		<circle class="st4" cx="393.4" cy="224.6" r="7.9"/>
		<text transform="matrix(0.807 0 0 1 390.3778 227.0956)" class="st5 st6 st8">58</text>
	</g>
	<g id="p-57">
		<circle class="st4" cx="385.4" cy="193.7" r="7.9"/>
		<text transform="matrix(0.807 0 0 1 382.5491 196.1887)" class="st5 st6 st8">57</text>
	</g>
	<g id="p-56">
		<circle class="st4" cx="418.8" cy="224.6" r="7.9"/>
		<text transform="matrix(0.807 0 0 1 415.5948 227.3132)" class="st5 st6 st9">56</text>
	</g>
	<g id="p-55">
		<circle class="st4" cx="405" cy="195.7" r="7.9"/>
		<text transform="matrix(0.807 0 0 1 401.9967 198.6149)" class="st5 st6 st7">55</text>
	</g>
	<g id="p-54">
		<circle class="st4" cx="439.9" cy="224.6" r="7.9"/>
		<text transform="matrix(0.807 0 0 1 436.8986 227.3132)" class="st5 st6 st9">54</text>
	</g>
	<g id="p-53">
		<circle class="st4" cx="430.8" cy="196.7" r="7.9"/>
		<text transform="matrix(0.807 0 0 1 427.8072 199.265)" class="st5 st6 st7">53</text>
	</g>
	<g id="p-52">
		<circle class="st4" cx="460.1" cy="224.6" r="7.9"/>
		<text transform="matrix(0.807 0 0 1 457.0169 227.3132)" class="st5 st6 st9">52</text>
	</g>
	<g id="p-51A">
		<circle class="st4" cx="465.3" cy="196.2" r="7.9"/>
		<text transform="matrix(0.807 0 0 1 461.1087 198.9101)" class="st5 st6 st9">51A</text>
	</g>
	<g id="p-51">
		<circle class="st4" cx="449.4" cy="196.2" r="7.9"/>
		<text transform="matrix(0.807 0 0 1 446.6622 198.9101)" class="st5 st6 st9">51</text>
	</g>
	<g id="p-50">
		<circle class="st4" cx="475.3" cy="224.6" r="7.9"/>
		<text transform="matrix(0.807 0 0 1 472.1588 227.3132)" class="st5 st6 st9">50</text>
	</g>
	<g id="p-49">
		<circle class="st4" cx="481.8" cy="196.3" r="7.9"/>
		<text transform="matrix(0.807 0 0 1 478.6949 199.0137)" class="st5 st6 st9">49</text>
	</g>
	<g id="p-48">
		<circle class="st4" cx="490" cy="224.6" r="7.9"/>
		<text transform="matrix(0.807 0 0 1 486.9501 227.3132)" class="st5 st6 st9">48</text>
	</g>
	<g id="p-47">
		<circle class="st4" cx="498.2" cy="197.1" r="7.9"/>
		<text transform="matrix(0.807 0 0 1 495.592 199.843)" class="st5 st6 st9">47</text>
	</g>
	<g id="p-46">
		<circle class="st4" cx="505.1" cy="224.6" r="7.9"/>
		<text transform="matrix(0.807 0 0 1 502.0084 227.3132)" class="st5 st6 st9">46</text>
	</g>
	<g id="p-45">
		<circle class="st4" cx="514.6" cy="197.8" r="7.9"/>
		<text transform="matrix(0.807 0 0 1 511.5741 200.5166)" class="st5 st6 st9">45</text>
	</g>
	<g id="p-44A">
		<circle class="st4" cx="526.7" cy="169.7" r="7.9"/>
		<text transform="matrix(0.807 0 0 1 522.2494 172.3728)" class="st5 st6 st9">44A</text>
	</g>
	<g id="p-44">
		<circle class="st4" cx="511.7" cy="169.7" r="7.9"/>
		<text transform="matrix(0.807 0 0 1 508.8085 172.3728)" class="st5 st6 st9">44</text>
	</g>
	<g id="p-43">
		<circle class="st4" cx="515.9" cy="145.1" r="7.9"/>
		<text transform="matrix(0.807 0 0 1 512.8531 147.7848)" class="st5 st6 st9">43</text>
	</g>
	<g id="p-40A">
		<circle class="st4" cx="480.6" cy="169.7" r="7.9"/>
		<text transform="matrix(0.807 0 0 1 476.0691 172.3728)" class="st5 st6 st9">40A</text>
	</g>
	<g id="p-40">
		<circle class="st4" cx="464.6" cy="169.8" r="7.9"/>
		<text transform="matrix(0.807 0 0 1 461.5458 172.4763)" class="st5 st6 st9">40</text>
	</g>
	<g id="p-42">
		<circle class="st4" cx="496.2" cy="169.7" r="7.9"/>
		<text transform="matrix(0.807 0 0 1 493.2975 172.3728)" class="st5 st6 st9">42</text>
	</g>
	<g id="p-41">
		<circle class="st4" cx="493.3" cy="147" r="7.9"/>
		<text transform="matrix(0.807 0 0 1 490.7415 149.7419)" class="st5 st6 st9">41</text>
	</g>
	<g id="p-39">
		<circle class="st4" cx="485.8" cy="132.9" r="7.9"/>
		<text transform="matrix(0.807 0 0 1 482.6123 135.6499)" class="st5 st6 st9">39</text>
	</g>
	<g id="p-38">
		<circle class="st4" cx="448.7" cy="169.8" r="7.9"/>
		<text transform="matrix(0.807 0 0 1 445.5404 172.4763)" class="st5 st6 st9">38</text>
	</g>
	<g id="p-37">
		<circle class="st4" cx="469.3" cy="146.4" r="7.9"/>
		<text transform="matrix(0.807 0 0 1 466.7605 148.9043)" class="st5 st6 st7">37</text>
	</g>
	<g id="p-36">
		<circle class="st4" cx="428.4" cy="174.2" r="7.9"/>
		<text transform="matrix(0.807 0 0 1 425.4504 176.5909)" class="st5 st6 st7">36</text>
	</g>
	<g id="p-35">
		<circle class="st4" cx="406.3" cy="171" r="7.9"/>
		<text transform="matrix(0.807 0 0 1 403.1022 173.3776)" class="st5 st6 st7">35</text>
	</g>
	<g id="p-34">
		<circle class="st4" cx="386.8" cy="162.9" r="7.9"/>
		<text transform="matrix(0.807 0 0 1 383.9362 165.3647)" class="st5 st6 st8">34</text>
	</g>
	<g id="p-33">
		<circle class="st4" cx="439.9" cy="145.5" r="7.9"/>
		<text transform="matrix(0.807 0 0 1 437.162 148.2543)" class="st5 st6 st7">33</text>
	</g>
	<g id="p-32">
		<circle class="st4" cx="401.8" cy="108.5" r="7.9"/>
		<text transform="matrix(0.807 0 0 1 398.9093 111.0686)" class="st5 st6 st7">32</text>
	</g>
	<g id="p-31">
		<circle class="st4" cx="424.1" cy="97.3" r="7.9"/>
		<text transform="matrix(0.807 0 0 1 421.4646 100.06)" class="st5 st6 st9">31</text>
	</g>
	<g id="p-30">
		<circle class="st4" cx="452.3" cy="92.1" r="7.9"/>
		<text transform="matrix(0.807 0 0 1 449.192 94.846)" class="st5 st6 st9">30</text>
	</g>
	<g id="p-29">
		<circle class="st4" cx="474" cy="95.3" r="7.9"/>
		<text transform="matrix(0.807 0 0 1 470.919 97.9945)" class="st5 st6 st9">29</text>
	</g>
	<g id="p-28">
		<circle class="st4" cx="503.3" cy="103.7" r="7.9"/>
		<text transform="matrix(0.807 0 0 1 500.2199 106.3941)" class="st5 st6 st9">28</text>
	</g>
	<g id="p-27">
		<circle class="st4" cx="511.2" cy="130.1" r="7.9"/>
		<text transform="matrix(0.807 0 0 1 508.5433 132.819)" class="st5 st6 st9">27</text>
	</g>
	<g id="p-25">
		<circle class="st4" cx="574.9" cy="112.3" r="7.9"/>
		<text transform="matrix(0.807 0 0 1 572.0345 114.8423)" class="st5 st6 st8">25</text>
	</g>
	<g id="p-24">
		<circle class="st4" cx="586.9" cy="87.7" r="7.9"/>
		<text transform="matrix(0.807 0 0 1 584.1253 90.1675)" class="st5 st6 st8">24</text>
	</g>
	<g id="p-22">
		<circle class="st4" cx="611.6" cy="88.1" r="7.9"/>
		<text transform="matrix(0.807 0 0 1 608.8431 90.5992)" class="st5 st6 st8">22</text>
	</g>
	<g id="p-21">
		<circle class="st4" cx="641.3" cy="117.8" r="7.9"/>
		<text transform="matrix(0.807 0 0 1 638.7493 120.5369)" class="st5 st6 st9">21</text>
	</g>
	<g id="p-20">
		<circle class="st4" cx="635.7" cy="89.5" r="7.9"/>
		<text transform="matrix(0.807 0 0 1 632.8058 92.021)" class="st5 st6 st8">20</text>
	</g>
	<g id="p-19">
		<rect x="669.7" y="123.5" class="st4" width="10.6" height="10.6"/>
		<circle class="st4" cx="675" cy="128.8" r="7.9"/>
		<text transform="matrix(0.807 0 0 1 672.4083 131.3021)" class="st5 st6 st8">19</text>
	</g>
	<g id="p-18">
		<circle class="st4" cx="658.6" cy="85.1" r="7.9"/>
		<text transform="matrix(0.807 0 0 1 656.0972 87.5601)" class="st5 st6 st8">18</text>
	</g>
	<g id="p-17A">
		<circle class="st4" cx="704.4" cy="61.2" r="7.9"/>
		<text transform="matrix(0.807 0 0 1 700.8214 63.4336)" class="st5 st6 st8">17A</text>
	</g>
	<g id="p-17">
		<circle class="st4" cx="670.7" cy="56.2" r="7.9"/>
		<text transform="matrix(0.807 0 0 1 668.5626 58.7309)" class="st5 st6 st8">17</text>
	</g>
	<g id="p-16">
		<circle class="st4" cx="699.5" cy="88.1" r="7.9"/>
		<text transform="matrix(0.807 0 0 1 696.9358 90.5992)" class="st5 st6 st8">16</text>
	</g>
	<g id="p-15">
		<circle class="st4" cx="736.5" cy="64" r="7.9"/>
		<text transform="matrix(0.807 0 0 1 733.9812 66.4727)" class="st5 st6 st8">15</text>
	</g>
	<g id="p-14">
		<circle class="st4" cx="736.9" cy="101.2" r="7.9"/>
		<text transform="matrix(0.807 0 0 1 734.4924 103.6742)" class="st5 st6 st8">14</text>
	</g>
	<g id="p-13">
		<circle class="st4" cx="736.9" cy="131.1" r="7.9"/>
		<text transform="matrix(0.807 0 0 1 734.4065 133.6013)" class="st5 st6 st8">13</text>
	</g>
	<g id="p-12">
		<circle class="st4" cx="736.5" cy="167.1" r="7.9"/>
		<text transform="matrix(0.807 0 0 1 734.0779 169.6513)" class="st5 st6 st8">12</text>
	</g>
	<g id="p-11">
		<circle class="st4" cx="699" cy="129.6" r="7.9"/>
		<text transform="matrix(0.807 0 0 1 696.89 132.1274)" class="st5 st6 st8">11</text>
	</g>
	<g id="p-10A">
		<circle class="st4" cx="699.5" cy="184.9" r="7.9"/>
		<text transform="matrix(0.807 0 0 1 695.5422 187.3887)" class="st5 st6 st8">10A</text>
	</g>
	<g id="p-10">
		<circle class="st4" cx="670.7" cy="180.4" r="7.9"/>
		<text transform="matrix(0.807 0 0 1 668.1622 182.9278)" class="st5 st6 st8">10</text>
	</g>
	<g id="p-9">
		<circle class="st4" cx="708.6" cy="151.7" r="7.9"/>
		<text transform="matrix(0.807 0 0 1 707.1329 154.2204)" class="st5 st6 st8">9</text>
	</g>
	<g id="p-8">
		<circle class="st4" cx="643.2" cy="177.9" r="7.9"/>
		<text transform="matrix(0.807 0 0 1 641.7033 180.4239)" class="st5 st6 st8">8</text>
	</g>
	<g id="p-7">
		<circle class="st4" cx="640.2" cy="150" r="7.9"/>
		<text transform="matrix(0.807 0 0 1 639.1511 152.4598)" class="st5 st6 st8">7</text>
	</g>
	<g id="p-6">
		<circle class="st4" cx="614.7" cy="175.5" r="7.9"/>
		<text transform="matrix(0.807 0 0 1 613.1713 178.0237)" class="st5 st6 st8">6</text>
	</g>
	<g id="p-5">
		<circle class="st4" cx="618.9" cy="146.9" r="7.9"/>
		<text transform="matrix(0.807 0 0 1 617.4467 149.4207)" class="st5 st6 st8">5</text>
	</g>
	<g id="p-4">
		<circle class="st4" cx="592.5" cy="175.4" r="7.9"/>
		<text transform="matrix(0.807 0 0 1 591.1292 177.92)" class="st5 st6 st8">4</text>
	</g>
	<g id="p-3">
		<circle class="st4" cx="596.8" cy="146.9" r="7.9"/>
		<text transform="matrix(0.807 0 0 1 595.305 149.4207)" class="st5 st6 st8">3</text>
	</g>
	<g id="p-2">
		<circle class="st4" cx="562.1" cy="172.9" r="7.9"/>
		<text transform="matrix(0.807 0 0 1 560.7272 175.4163)" class="st5 st6 st8">2</text>
	</g>
	<g id="p-1">
		<circle class="st4" cx="574.9" cy="145.5" r="7.9"/>
		<text transform="matrix(0.807 0 0 1 573.8597 147.9602)" class="st5 st6 st8">1</text>
	</g>
</g>
</svg>
