<svg version="1.1" xmlns="http://www.w3.org/2000/svg" xmlns:xlink="http://www.w3.org/1999/xlink" x="0px" y="0px"
	 viewBox="0 0 770.2 595.3" style="enable-background:new 0 0 770.2 595.3;" xml:space="preserve">

<g id="Template" class="st0">
	
		<image style="display:inline;overflow:visible;" width="564" height="431" xlink:href="../../../../../../../Desktop/a2fa3a3deacd1afd6014e1c33ae2e5cb.jpg"  transform="matrix(1.3812 0 0 1.3812 0 0)">
	</image>
</g>
<g id="Grass">
	<rect x="0" y="0" class="st1" width="770.2" height="595.3"/>
</g>
<g id="Roads">
	<g>
		<path class="st2" d="M511.7,321.2"/>
		<path class="st2" d="M437.6,12.3"/>
		<path class="st2" d="M511.7,321.2"/>
		<path class="st2" d="M212.3,353"/>
		<path class="st2" d="M635.7,396.6"/>
		<path class="st2" d="M450.9,606.8C450.9,606.8,450.9,606.7,450.9,606.8c-0.2-0.3-16.9-26-38-53.6c-12.4-16.2-23.8-29.9-34-40.7
			c-12.7-13.5-23.5-22.4-32.1-26.5c-19.4-9.3-34.1-14.2-43.1-16.7c-9.7-2.7-14.9-3.1-14.9-3.1c0,0,0,0,0,0c0,0,0.1-3.8,6.4-10.7
			c1.9-2.1,18.2-11.3,40.6-24.1c26.2-14.9,58.8-33.5,86.1-50.5c14.8-9.3,26.5-17.2,34.8-23.4c9.5-7.3,14.8-12.6,15.7-16
			c-0.3-0.5-12.8-0.9-70.8-0.2c-34.2,0.4-68.8,1-70,1c-2.9,6.7-8,12-15.1,15.7c-9,4.7-21.3,6.9-36.6,6.5c-2.1,0-50.4,0.2-51.1,0
			c-0.7-0.2-22.4-20.4-23.6-21.5c-5.2,1.7-26,3.4-47.4,3.7c-11.2,0.2-21.2,0-28.8-0.5c-8.9-0.6-14.2-1.7-15.8-3.2
			c-1.7-1.6-8.2-13.3-8.6-14c-1-0.1-28.8-1.9-33-4c-1.8-0.9-2.4-7.5-1.7-19.7c0.5-9,1.6-17.9,1.6-18c0,0,0,0,0,0
			c9.8-13.7,20.4-25.2,31.5-34.1c9.5-7.6,19.3-13.4,29.1-17.2c8.1-3.1,16.2-4.9,23.7-5.1c3.5-0.1,10.1,0,15.2,2.3
			c0.4,0.2,0.8,0.7,1,1.6c1.3,4.2,0.7,15.4,0,24.1c-0.8,9.3-1.9,18.1-2.2,18.7c0.6,0.5,17.4,0.2,27.6,0c5.4-0.1,9.4-0.2,9.7-0.1
			c0.4-0.2,0.9-8.4,1.5-17.9c1.3-19.4,3.2-48.7,6.4-55.3c1.7-3.7,5.6-11.1,12-19.7c6.5-8.7,13.8-16.2,21.6-22.2
			c15.5-11.8,22.9-12.3,29.4-12.7c0.9-0.1,1.7-0.1,2.5-0.2c5.5-0.5,22.8,0.9,34.2,1.8c3.3,0.3,6.1,0.5,8.1,0.6c0.1,0,0.2,0,0.3,0
			c4,0,14.1-5.2,29.2-15c11.7-7.6,22.4-15.5,22.6-15.5c0,0,0,0,0,0h0l104.6,1.3c0.3,0,29.8-2.7,31.4-2.8c13.4-1.1,25.2-4.5,34.2-10
			c0.2-0.1,0.4-0.2,0.5-0.3c0.1-0.1,11.2-8.4,12.3-10.6c1.7-3.7,3.2-9.2,4.8-14.9c3.4-12.4,7.3-26.5,15.2-31.9
			c11.4-7.7,100.9-60.1,101.8-60.6c0,0,0.1,0,0.1,0c0,0,0,0.1,0,0.1C678.8-8,589.4,44.3,578,52.1c-7.8,5.3-11.7,19.4-15.2,31.8
			c-1.6,5.7-3.1,11.2-4.8,14.9c-1,2.3-12.2,10.6-12.3,10.7c-0.1,0-0.2,0.1-0.5,0.3c-9,5.4-20.9,8.9-34.2,10
			c-1.6,0.1-31.1,2.8-31.4,2.8L375,121.2c-0.4,0.3-11,8-22.5,15.5c-15.3,10-25.2,15.1-29.2,15.1c-0.1,0-0.2,0-0.3,0
			c-2-0.1-4.9-0.4-8.1-0.6c-11.4-0.9-28.6-2.3-34.2-1.8c-0.8,0.1-1.6,0.1-2.5,0.2c-6.5,0.4-13.9,0.9-29.4,12.7
			c-7.8,5.9-15,13.4-21.5,22.1c-6.4,8.6-10.3,16-12,19.7c-3.1,6.6-5.1,35.9-6.3,55.3c-0.8,11.6-1.2,17.6-1.6,17.9c0,0-0.1,0-0.1,0
			c-0.4-0.1-4.5,0-9.7,0.1c-17.7,0.3-27.4,0.4-27.7-0.1c0,0,0-0.1,0-0.1c0.2-0.3,1.4-9,2.2-18.7c0.7-8.7,1.3-19.9,0-24
			c-0.3-0.8-0.6-1.3-1-1.5c-2.2-1-7-2.5-15.2-2.3c-7.4,0.2-15.6,2-23.7,5.1c-9.9,3.8-19.7,9.6-29.1,17.2
			c-11.1,8.9-21.7,20.4-31.5,34.1c-0.1,0.8-4.3,35.5,0,37.6c4.3,2.1,32.7,3.9,33,4c0,0,0,0,0,0c0.1,0.1,6.9,12.5,8.6,14
			c2.9,2.8,19.5,4.1,44.5,3.7c21.4-0.4,42.2-2,47.4-3.7c0,0,0,0,0,0c7.9,7.4,23.1,21.3,23.6,21.5c0.6,0.2,50.5,0,51.1,0
			c15.3,0.4,27.6-1.8,36.6-6.5c7.1-3.7,12.2-9,15.1-15.6c0,0,0,0,0,0c5.7-0.1,139.6-2.5,140.9-0.8c0,0,0,0.1,0,0.1
			c-0.9,3.4-6.2,8.8-15.7,16.1c-8.2,6.3-19.9,14.2-34.8,23.4c-27.3,17.1-59.9,35.6-86.1,50.5c-22.5,12.8-38.7,22-40.6,24.1
			c-5.9,6.4-6.3,10.2-6.4,10.6c0.5,0.1,5.7,0.6,14.9,3.1c9,2.5,23.7,7.4,43.1,16.7c8.6,4.1,19.4,13,32.1,26.5
			c10.2,10.8,21.7,24.4,34,40.7C434.1,580.7,450.8,606.4,450.9,606.8C451,606.7,451,606.7,450.9,606.8
			C451,606.8,450.9,606.8,450.9,606.8z"/>
		<path class="st2" d="M467.4,136.6"/>
		<path class="st2" d="M696.8,106.1c-7.4,0-17.4,0-30.6-0.1c-0.1,0-0.1,0.1-0.1,0.1c0,0-0.1,0-0.1,0c0,0,0,0,0-0.1
			c-7.1,0-15.1-0.1-24.2-0.1c-38-0.2-76.5-0.5-76.9-0.5c0,0,0,0,0-0.1c0,0,0,0,0,0l0,0c0.9,0,57,0.5,101.2,0.7
			c0.4-0.3,1.8-1.2,3.2-3.3c2.7-4.2,3-9.5,2.8-13.3c-0.5-10.2,1-11.2,5.7-14.3c1.4-0.9,3.1-2,5.1-3.6c2.1-1.6,2.1-6,2.1-10.6
			c0-5.2,0-10.5,2.9-12.7c2.6-2,8.7-3,15.5-2.6c7.3,0.4,13.4,2.3,16.3,5.1c2.7,2.6,4,10.3,4.6,16.4c0.7,6.5,0.7,12.5,0.7,12.6
			c0,0.2-1.6,17.9-6,26.1C719,105.9,718.9,106.1,696.8,106.1z M666.3,105.9c28.5,0.1,52,0.1,52.7-0.2c4.3-8.2,6-25.9,6-26.1
			c0-0.2-0.1-24-5.3-28.9c-2.9-2.8-9-4.6-16.3-5.1c-6.8-0.4-12.9,0.6-15.4,2.6c-2.8,2.2-2.8,7.5-2.8,12.6c0,4.6,0,9-2.1,10.7
			c-2,1.6-3.8,2.7-5.1,3.6c-4.7,3.1-6.2,4-5.7,14.2c0.2,3.8-0.2,9.2-2.9,13.3C668.1,104.6,666.8,105.6,666.3,105.9z"/>
		<path class="st2" d="M724.9,74h-45.1c0,0,0,0,0,0s0,0,0,0L724.9,74C724.9,73.9,724.9,73.9,724.9,74C724.9,74,724.9,74,724.9,74z"
			/>
		<path class="st2" d="M707.5,171.5c-4.3,0-8-0.6-8.8-0.7c-0.4-0.1-10.9-1.1-21-2.1c-6.1-0.6-12.4-1.2-16.6-1.7
			c-34.1-3.5-105.5-8.8-106.3-8.8c0,0,0,0,0,0s0,0,0,0c0.1-0.4,11.8-41.8,10.6-50.1c-0.3-2.4-1.4-5.6-4.4-7.3c-1.8-1-3.5-1-3.5-1
			c0,0,0,0,0,0s0,0,0,0c0,0,1.7,0,3.5,1.1c3,1.8,4.1,5,4.4,7.4c1.2,8.2-10.1,48.3-10.6,50.1c2.5,0.2,72.6,5.4,106.2,8.8
			c4.2,0.4,10.5,1.1,16.6,1.7c10.6,1.1,20.6,2.1,21,2.1c0.8,0.1,5.1,0.8,9.7,0.7c5.5-0.1,9.3-1.2,11.2-3.3
			c4.6-4.9,0.7-64.8,0.7-65.5c0,0,0-0.1,0-0.1c0,0,0.1,0,0.1,0c0,0.2,1,15.3,1.4,30.9c0.5,20.9-0.2,32.6-2.1,34.6
			c-2,2.1-5.8,3.2-11.3,3.4C708.1,171.5,707.8,171.5,707.5,171.5z"/>
		<path class="st2" d="M562.1,130.1C562.1,130.1,562.1,130.1,562.1,130.1C562.1,130.1,562.1,130.1,562.1,130.1l34.5-24.7
			c0,0,0.1,0,0.1,0c0,0,0,0.1,0,0.1L562.1,130.1C562.1,130.1,562.1,130.1,562.1,130.1z"/>
		<path class="st2" d="M645.4,165.5C645.4,165.5,645.4,165.5,645.4,165.5C645.3,165.4,645.4,165.4,645.4,165.5
			c0.1-0.2,12-8.4,14.6-17.5c0.9-3.2,2-41.5,2-41.9c0,0,0,0,0,0h0c0,0,0,0,0,0.1c0,0.4-1.1,38.7-2,41.9
			C657.5,157.2,645.6,165.4,645.4,165.5C645.4,165.5,645.4,165.5,645.4,165.5z"/>
		<path class="st2" d="M663.4,167.2c-0.1,0-0.2,0-0.2,0c0,0,0,0,0-0.1c0,0,0,0,0,0c0,0,0,0,0,0c0,0,5.5,0.1,11.1-0.8
			c5.2-0.8,11.6-2.6,12.6-6.6c2-7.5,2.3-53.2,2.3-53.6c0,0,0,0,0,0l0,0c0,0,0,0,0,0.1c0,0.5-0.3,46.1-2.3,53.7
			c-0.5,1.8-2,3.3-4.6,4.5c-2.1,0.9-4.8,1.7-8.1,2.2C669.4,167.1,664.5,167.2,663.4,167.2z"/>
		<path class="st2" d="M461.3,157.8c-15.1,0-28.2-0.1-33.4-0.5c-7.7-0.6-17.6-1.6-25.3-3.9c-3.8-1.1-6.9-2.5-9-4.1
			c-2.4-1.8-3.8-3.9-4.1-6.2c-1.3-9.8,0-21.7,0-21.8c0,0,0,0,0,0c0,0,0,0,0,0c0,0,0,0,0,0.1c0,0.1-1.3,12,0,21.8
			c0.3,2.3,1.7,4.4,4,6.2c2.1,1.6,5.1,2.9,9,4.1c7.7,2.3,17.6,3.2,25.3,3.8c15.5,1.2,99.4,0,101.9,0v-18.9c0-5-8.4-19.8-8.5-20
			c0,0,0,0,0,0c0,0,0,0,0,0l33.6-16.9V75.8L537.3,52l-22.6,6.6l-16.4,32.4c0,0,0,0-0.1,0l-43.3-10.6l-50.6,7.3L375,121.2
			c0,0,0,0-0.1,0c0,0,0,0,0-0.1l29.2-33.5c0,0,0,0,0,0l50.7-7.3c0,0,0,0,0,0l43.3,10.6l16.4-32.4c0,0,0,0,0,0l22.7-6.6
			c0,0,0,0,0.1,0L555,75.8c0,0,0,0,0,0v25.5c0,0,0,0,0,0l-33.6,16.9c0.5,0.9,8.5,15.1,8.5,20v19c0,0,0,0,0,0
			C529.2,157.3,491.2,157.8,461.3,157.8z"/>
		<path class="st2" d="M454.9,157.3C454.9,157.3,454.9,157.3,454.9,157.3l0-35.1c0,0,0,0,0,0s0,0,0,0L454.9,157.3
			C455,157.3,454.9,157.3,454.9,157.3z"/>
		<path class="st2" d="M492.9,211.6c-19.6,0-46.1-0.1-72.4-0.2c-30.3-0.1-100.8-0.5-101.4-1.4c0,0,0,0,0-0.1
			c0.4-1.3,3.8-57.7,3.8-58.3c0,0,0-0.1,0.1,0c0,0,0,0,0,0.1c-0.1,2.3-3.4,56.5-3.8,58.3c1.1,0.5,39,1,101.6,1.3
			c50.2,0.2,101.4,0.2,103.4,0c3.9-0.4,13.1-45.5,13.2-46c0,0,0,0,0,0l17.6-7.3c0,0,0.1,0,0.1,0c0,0,0,0.1,0,0.1l-17.6,7.3
			c-0.5,2.2-9.3,45.6-13.3,46C523.2,211.6,510.9,211.6,492.9,211.6z"/>
		<path class="st2" d="M322.3,175.6C322.2,175.6,322.2,175.6,322.3,175.6C322.2,175.5,322.2,175.5,322.3,175.6
			c1.6-1.5,12.3-13,21.9-23.6c5.5-6.1,10.1-11.3,13.3-15.1c5.2-6.2,5.6-7.1,5.5-7.2c0,0,0-0.1,0-0.1c0,0,0.1,0,0.1,0
			c0.1,0.1,0.4,0.5-5.5,7.4c-3.2,3.8-7.8,9-13.3,15.1C334.6,162.7,323.9,174.1,322.3,175.6C322.3,175.6,322.3,175.6,322.3,175.6z"/>
		<path class="st2" d="M507.3,604.6C507.3,604.6,507.3,604.6,507.3,604.6C507.3,604.5,507.3,604.5,507.3,604.6l14.1-201.4l6.6-91.2
			l0-0.3c3.9-37.1,8-75.4-3.4-102c0,0,0-0.1,0-0.1c0,0,0.1,0,0.1,0c11.4,26.6,7.3,65,3.4,102l0,0.3l-6.6,91.2L507.3,604.6
			C507.4,604.5,507.4,604.6,507.3,604.6z"/>
		<path class="st2" d="M784.5,321.3C784.5,321.3,784.5,321.3,784.5,321.3l-254.7-27.4c0,0,0,0,0-0.1c0,0,0,0,0,0c0,0,0,0,0,0
			L784.5,321.3C784.6,321.2,784.6,321.2,784.5,321.3C784.6,321.3,784.5,321.3,784.5,321.3z"/>
		<path class="st2" d="M786.3,232.6C786.3,232.6,786.3,232.6,786.3,232.6l-259.6-25.3c0,0,0,0,0-0.1c0,0,0,0,0,0c0,0,0,0,0,0
			L786.3,232.6C786.3,232.5,786.3,232.6,786.3,232.6C786.3,232.6,786.3,232.6,786.3,232.6z"/>
		<path class="st2" d="M734.3,598.3C734.3,598.3,734.3,598.3,734.3,598.3C734.3,598.3,734.2,598.2,734.3,598.3
			c0.5-15.1,13.2-367.7,13.6-369.4c0,0,0,0,0.1,0c0,0,0,0,0,0.1C747.6,230.6,734.5,594.5,734.3,598.3
			C734.3,598.2,734.3,598.3,734.3,598.3z"/>
		<path class="st2" d="M605.2,604.6C605.2,604.6,605.1,604.5,605.2,604.6C605.1,604.5,605.1,604.5,605.2,604.6l184.2-146.8
			c0,0,0.1,0,0.1,0c0,0,0,0.1,0,0.1L605.2,604.6C605.2,604.5,605.2,604.6,605.2,604.6z"/>
		<path class="st2" d="M429.6,471.7c-9,0-20.8-3.8-35.2-11.5c-15.3-8.1-29.6-18.3-37.2-23.8c-3-2.1-5-3.6-5.4-3.7
			c-0.9-0.2-6.1-2-13.3-4.5c-19.1-6.6-51.1-17.5-53.7-17.5c-2.2,0-36.6,3.6-61.8,6.3c-15.9,1.7-28.5,3-29,3
			c-1.3,0-30,21.2-30.2,21.4c0,0-0.1,0-0.1,0c0,0,0-0.1,0-0.1c1.2-0.9,29-21.4,30.3-21.4c0.5,0,13.1-1.3,29-3
			c25.2-2.6,59.6-6.3,61.8-6.3c2.6,0,34.6,11,53.7,17.5c7.2,2.5,12.4,4.3,13.3,4.5c0.4,0.1,2.3,1.5,5.4,3.7
			c7.7,5.5,21.9,15.7,37.2,23.8c18.7,9.9,33,13.4,42.4,10.4c5.6-1.8,9.5-5.8,11.6-12.1c8.5-24.7,10.4-43.4,11.9-58.5
			c0.9-9.1,1.7-16.9,3.7-24c5.3-18.7,18.3-82.8,18.5-83.4c0-0.2,2.8-22.4,8.4-34.8c1.3-2.9,4.1-6.4,8.5-10.5
			c3.5-3.3,7.9-6.9,13.1-10.8c8.9-6.6,17.2-11.8,17.3-11.8c0,0,0.1,0,0.1,0c0,0,0,0.1,0,0.1c-0.1,0.1-8.4,5.2-17.3,11.8
			c-14.8,11.1-19.9,17.7-21.5,21.2c-5.6,12.4-8.3,34.6-8.4,34.8c-0.1,0.6-13.1,64.8-18.5,83.5c-2,7.1-2.8,14.9-3.7,24
			c-1.5,15.1-3.4,33.8-12,58.5c-2.2,6.3-6.1,10.4-11.7,12.2C434.7,471.3,432.3,471.7,429.6,471.7z"/>
		<path class="st2" d="M288.8,466.2C288.8,466.2,288.8,466.2,288.8,466.2c-6.4-2.1-28.5-6-56.4-10.8
			c-43.3-7.5-102.6-17.8-140.6-28.4c0,0,0,0,0,0c-14.7-12.2-30.1-29.1-47.1-51.6C30.5,356.6,14.9,333.6-3,304.9c0,0,0-0.1,0-0.1
			c0,0,0.1,0,0.1,0c17.9,28.7,33.5,51.8,47.6,70.5c17,22.5,32.4,39.3,47.1,51.6c38,10.5,97.3,20.8,140.6,28.4
			C260.3,460.1,282.4,463.9,288.8,466.2C288.8,466.1,288.8,466.1,288.8,466.2C288.8,466.2,288.8,466.2,288.8,466.2z"/>
		<path class="st2" d="M69.1,608.6c-0.1,0-0.1,0-0.2,0c0,0,0,0,0-0.1c0,0,0,0,0.1,0c0.4,0.1,0.8-0.1,1.2-0.8
			C74.5,600.8,82,556,87,515.2c2.8-22.3,4.8-43.1,5.8-58.6c1.1-17.6,0.7-27.8-1-29.6c0,0,0-0.1,0-0.1c0,0,0.1,0,0.1,0
			c2.2,2.3,1.8,17.4,1.1,29.7c-0.9,15.5-3,36.3-5.8,58.6c-2.7,21.8-5.8,43-8.8,59.7c-3.3,18.3-6.1,29.6-8.1,32.8
			C69.8,608.2,69.4,608.6,69.1,608.6z"/>
		<path class="st2" d="M205.1,342.8C205.1,342.8,205.1,342.8,205.1,342.8C205.1,342.8,205,342.8,205.1,342.8
			c0-0.2,5.2-12.7,7.2-29.6c1-8.8-0.4-18.2-1.8-24.4c-1.5-6.8-3.3-11.5-3.3-11.6c0,0,0-0.1,0-0.1s0.1,0,0.1,0c0,0,1.8,4.8,3.3,11.6
			c1.4,6.3,2.8,15.6,1.8,24.5C210.4,330.1,205.2,342.6,205.1,342.8C205.1,342.8,205.1,342.8,205.1,342.8z"/>
		<path class="st2" d="M210.8,324.6C210.8,324.6,210.8,324.6,210.8,324.6C210.7,324.5,210.7,324.5,210.8,324.6l29.4-26.9
			c-2-0.1-27.6-0.7-28.9,0c0,0-0.1,0-0.1,0c0,0,0-0.1,0-0.1c1.3-0.7,27.9,0,29.1,0c0,0,0,0,0,0s0,0,0,0.1L210.8,324.6
			C210.8,324.6,210.8,324.6,210.8,324.6z"/>
		<path class="st2" d="M240.3,297.7C240.3,297.7,240.3,297.7,240.3,297.7C240.3,297.7,240.2,297.6,240.3,297.7
			c0.4-1.4,50.1-146.9,50.6-148.4c0,0,0,0,0.1,0c0,0,0,0,0,0.1C290.5,150.8,240.8,296.3,240.3,297.7
			C240.3,297.7,240.3,297.7,240.3,297.7z"/>
		<path class="st2" d="M331.5,342.1C331.5,342.1,331.5,342.1,331.5,342.1l-37.9-47.4l-43.3-24.1c0,0,0,0,0-0.1c0,0,0,0,0.1,0
			l43.3,24.2c0,0,0,0,0,0L331.5,342.1C331.6,342.1,331.6,342.1,331.5,342.1C331.5,342.1,331.5,342.1,331.5,342.1z"/>
		<path class="st2" d="M243.4,364.4C243.4,364.4,243.4,364.4,243.4,364.4C243.4,364.4,243.4,364.3,243.4,364.4
			c-0.2-0.4,4.9-6.8,15.5-20c19.2-24,48.3-60.2,49.8-67c0.9-4.1,2.4-16,4.1-28.7c1.2-9.7,2.5-19.7,3.7-27.4
			c1.7-11.4,2.4-12.9,2.8-12.9c0,0,0,0,0,0c0,0,0,0,0,0.1s0,0-0.1,0c0,0,0,0,0,0c-0.2,0-0.5,0.5-1.1,3.5c-0.4,2.1-1,5.2-1.6,9.4
			c-1.2,7.7-2.4,17.7-3.7,27.4c-1.6,12.7-3.2,24.6-4.1,28.7c-1.5,6.8-30.6,43-49.8,67C250.4,355.2,243.6,363.7,243.4,364.4
			C243.5,364.3,243.5,364.3,243.4,364.4C243.5,364.3,243.5,364.4,243.4,364.4z"/>
		<path class="st2" d="M316.3,234.9C316.3,234.9,316.3,234.9,316.3,234.9C316.2,234.8,316.2,234.8,316.3,234.9
			c0.2-0.3,25.7-22,27-23.3c0,0,0.1,0,0.1,0s0,0.1,0,0.1C342.1,212.9,316.6,234.6,316.3,234.9C316.3,234.9,316.3,234.9,316.3,234.9z
			"/>
		<path class="st2" d="M339.3,277.4C339.3,277.4,339.3,277.4,339.3,277.4c-4.8-2.6-27.3-21-27.5-21.2c0,0,0,0,0-0.1c0,0,0,0,0.1,0
			C312.1,256.3,334.5,274.7,339.3,277.4C339.3,277.3,339.3,277.4,339.3,277.4C339.3,277.4,339.3,277.4,339.3,277.4z"/>
		<path class="st2" d="M473.4,280.2L473.4,280.2c-1.6,0-161.1-2.8-163.3-2.8c0,0,0,0,0,0s0,0,0,0
			C312.3,277.3,471.8,280.1,473.4,280.2C473.4,280.1,473.5,280.1,473.4,280.2C473.5,280.2,473.4,280.2,473.4,280.2z"/>
		<path class="st2" d="M468.2,350.9C468.2,350.9,468.2,350.9,468.2,350.9C468.2,350.9,468.2,350.9,468.2,350.9
			c0.1-0.2,15.1-5.8,29.9-13.5c8.7-4.6,15.6-8.9,20.6-13c6.2-5.1,9.4-9.8,9.4-13.9c0,0,0,0,0,0l0,0c0,0,0,0,0,0
			c0,4.1-3.2,8.8-9.5,14c-5,4.1-11.9,8.5-20.6,13.1C483.4,345.3,468.4,350.9,468.2,350.9C468.2,350.9,468.2,350.9,468.2,350.9z"/>
		<path class="st2" d="M100.2,328.2C100.2,328.2,100.2,328.2,100.2,328.2C100.1,328.2,100.1,328.2,100.2,328.2
			c0-0.2,4.2-13.4,10.5-23.4c2.7-4.2,13.2-10.1,31.4-17.5c13.4-5.4,26.4-9.8,27.8-10.3l0,0c0,0,0.1,0,0.1,0s0,0.1,0,0.1l0,0
			c-1.4,0.5-14.4,4.8-27.8,10.3c-12.5,5.1-28,12.2-31.3,17.4C104.5,314.9,100.3,328,100.2,328.2
			C100.2,328.2,100.2,328.2,100.2,328.2z"/>
		<path class="st2" d="M69.6,314.4C69.6,314.4,69.6,314.4,69.6,314.4c-0.1-0.1-4.5-5.3-8.5-11.2c-5.4-7.9-7.6-13.3-6.4-15.9
			c1.2-2.6,4.5-3.4,9.5-2.5c3.8,0.7,7.3,2.2,7.3,2.2c0,0,0,0,0,0.1c0,0,0,0-0.1,0c0,0-3.5-1.5-7.3-2.2c-3.5-0.6-8-0.7-9.4,2.5
			c-1.2,2.5,1,8,6.4,15.8C65.2,309,69.6,314.2,69.6,314.4C69.7,314.3,69.7,314.3,69.6,314.4C69.7,314.4,69.7,314.4,69.6,314.4z"/>
		<path class="st2" d="M418.8,121.7C418.7,121.7,418.7,121.7,418.8,121.7C418.7,121.7,418.7,121.7,418.8,121.7
			c3.9-1.5,13.7-4.7,24.7-7.6c9.3-2.4,22.2-5.4,31-5.7c0.6,0,1.2,0,1.8,0c8.9,0,11.7,2.4,15.6,5.6c2.3,2,4.9,4.2,9.5,6.4
			c0,0,0,0,0,0.1c0,0,0,0-0.1,0c-4.6-2.2-7.2-4.4-9.5-6.4c-4-3.4-7-5.9-17.3-5.6c-8.8,0.3-21.7,3.3-31,5.7
			C432.5,117.2,422.7,120.3,418.8,121.7C418.8,121.7,418.8,121.7,418.8,121.7z"/>
		<path class="st2" d="M472.1,108.7C472,108.7,472,108.7,472.1,108.7C472,108.6,472,108.6,472.1,108.7c6.9-1,21.2-5.8,26.1-17.8
			c0,0,0,0,0.1,0c0,0,0,0,0,0.1C493.3,103,479,107.8,472.1,108.7C472.1,108.7,472.1,108.7,472.1,108.7z"/>
		<path class="st2" d="M528.1,294.9C528,294.9,528,294.9,528.1,294.9c-2.6-1.7-45.5,0-46,0c0,0-0.1,0-0.1,0c0,0,0-0.1,0-0.1
			C483.9,294.7,525.5,293,528.1,294.9C528.1,294.8,528.1,294.8,528.1,294.9C528.1,294.9,528.1,294.9,528.1,294.9z"/>
		<path class="st2" d="M579.7,106"/>
		<path class="st2" d="M537.3,165.5C537.3,165.5,537.3,165.5,537.3,165.5l-7.6-8.2c0,0,0-0.1,0-0.1c0,0,0.1,0,0.1,0L537.3,165.5
			C537.4,165.4,537.4,165.4,537.3,165.5C537.4,165.5,537.3,165.5,537.3,165.5z"/>
		<path class="st2" d="M240.3,297.7C240.3,297.7,240.3,297.7,240.3,297.7C240.2,297.6,240.3,297.6,240.3,297.7l44.1-8.1
			c0,0,0.1,0,0.1,0c0,0,0,0.1,0,0.1L240.3,297.7C240.3,297.7,240.3,297.7,240.3,297.7z"/>
		<path class="st2" d="M473.4,280.2C473.4,280.2,473.4,280.2,473.4,280.2C473.4,280.1,473.4,280.1,473.4,280.2
			c0.9-0.2,1.6-0.2,2.4-0.3c3.5-0.2,6-0.4,9.9-5.2c0,0,0,0,0.1,0c0,0,0,0,0,0.1c-4,4.8-6.5,5-10,5.2
			C475.1,280.1,474.3,280.1,473.4,280.2C473.4,280.2,473.4,280.2,473.4,280.2z"/>
		<path class="st2" d="M481.9,298.8C481.9,298.8,481.9,298.8,481.9,298.8C481.9,298.8,481.8,298.7,481.9,298.8
			c1.6-8.1-1.5-15-8.5-18.6c0,0,0,0,0-0.1c0,0,0,0,0.1,0C480.5,283.7,483.6,290.7,481.9,298.8C481.9,298.8,481.9,298.8,481.9,298.8z
			"/>
		<path class="st2" d="M494.3,260.6"/>
		<path class="st2" d="M494.3,256.2"/>
		<path class="st2" d="M487.9,270.6"/>
		<path class="st2" d="M482.9,280.2"/>
		<path class="st2" d="M531.5,240.2C531.5,240.2,531.5,240.2,531.5,240.2c-1.4-4.5-3.4-7.2-6.1-8.1c-2.8-1-6.4-0.1-10.8,2.9
			c0,0-0.1,0-0.1,0c0,0,0-0.1,0-0.1c4.5-3,8-3.9,10.9-2.9C528.2,232.9,530.2,235.6,531.5,240.2C531.6,240.1,531.6,240.2,531.5,240.2
			C531.6,240.2,531.5,240.2,531.5,240.2z"/>
		<path class="st2" d="M447.9,121.7"/>
	</g>
	<g>
		<path class="st3" d="M511.7,321.2"/>
		<path class="st3" d="M437.6,12.3"/>
		<path class="st3" d="M511.7,321.2"/>
		<path class="st3" d="M212.3,353"/>
		<path class="st3" d="M635.7,396.6"/>
		<path class="st3" d="M679.7-8.6c0,0-90.2,52.8-101.8,60.6c-11.6,7.8-14.7,35.1-20,46.7c-1,2.3-12.1,10.6-12.3,10.7
			c-1,0.5-12.3,8.4-34.7,10.2c-1.7,0.1-31.4,2.8-31.4,2.8L375,121.1c0,0-42.8,31.2-52.1,30.6c-9.3-0.7-35.2-3.1-42.3-2.5
			c-7.1,0.7-14.4-0.5-31.9,12.9s-28.8,31.7-33.5,41.8c-4.8,10.1-6.8,73.4-7.9,73.2c-1.2-0.2-37.8,0.8-37.3,0
			c0.5-0.8,5.6-42.3,1.2-44.3c-13.2-5.8-57.2-4.7-99.5,54.2l0,0c0,0-4.4,35.5,0,37.7s33,4,33,4s6.9,12.5,8.6,14
			c6.8,6.4,81.3,3.5,91.9,0c0,0,23,21.3,23.6,21.5s51.1,0,51.1,0c33.6,0.9,46.7-10.7,51.7-22.1c0,0,141.3-2.5,140.9-0.7
			c-5.4,20.6-170.9,107.2-177.2,114.1c-6.4,6.9-6.4,10.7-6.4,10.7s20.4,1.8,58,19.8s104.2,120.7,104.2,120.7"/>
		<path class="st3" d="M467.4,136.6"/>
		<path class="st3" d="M564.9,105.3c0,0,153.7,1.3,154.2,0.5c4.4-8.3,6-26.1,6-26.1s0-24-5.3-28.9c-6.5-6.1-26.4-6.7-31.8-2.5
			c-5.4,4.2-0.6,19.9-5,23.3c-8.9,6.9-11.5,4.6-10.9,17.8S666,106,666,106"/>
		<line class="st3" x1="679.7" y1="73.9" x2="724.9" y2="73.9"/>
		<path class="st3" d="M720.4,102.6c0,0,4,60.5-0.7,65.5c-4.7,5-18.4,3.1-21,2.6c-0.6-0.1-26.4-2.7-37.5-3.8
			c-34.5-3.5-106.3-8.8-106.3-8.8s11.8-41.7,10.6-50.1c-1.2-8.4-7.9-8.4-7.9-8.4"/>
		<line class="st3" x1="562.1" y1="130.1" x2="596.7" y2="105.5"/>
		<path class="st3" d="M662,106.1c0,0-1.1,38.7-2,41.9c-2.6,9.3-14.6,17.4-14.6,17.4"/>
		<path class="st3" d="M689.3,106.1c0,0-0.3,46-2.3,53.6c-2,7.7-23.8,7.5-23.8,7.5"/>
		<path class="st3" d="M375,121.1l29.2-33.5l50.7-7.3l43.3,10.6l16.4-32.4l22.7-6.6l17.6,23.9v25.5l-33.6,16.9c0,0,8.5,14.9,8.5,20
			s0,19,0,19s-86.2,1.2-102,0c-17.7-1.4-37.1-4.2-38.4-14.1s0-21.8,0-21.8"/>
		<line class="st3" x1="454.9" y1="122.2" x2="454.9" y2="157.2"/>
		<path class="st3" d="M322.9,151.7c0,0-3.4,57-3.8,58.3c-0.4,1.3,201,1.8,205,1.4c4-0.4,13.2-46,13.2-46l17.6-7.3"/>
		<path class="st3" d="M322.3,175.5c3.2-2.8,41.7-44.7,40.7-45.9"/>
		<path class="st3" d="M524.7,209.6c11.4,26.7,7.3,65.3,3.4,102.3l-6.6,91.2l-14.1,201.4"/>
		<line class="st3" x1="529.8" y1="293.9" x2="784.5" y2="321.2"/>
		<line class="st3" x1="526.7" y1="207.3" x2="786.3" y2="232.6"/>
		<path class="st3" d="M747.9,228.8c-0.4,1.8-13.7,369.4-13.7,369.4"/>
		<line class="st3" x1="605.2" y1="604.5" x2="789.4" y2="457.8"/>
		<path class="st3" d="M163.8,441.2c0,0,29-21.4,30.3-21.4c1.3,0,87.3-9.3,90.8-9.3s63.9,21.2,67,22c3.1,0.9,82.8,66.2,96.8,25.8
			c13.7-39.5,10.3-63.6,15.7-82.5c5.4-18.9,18.5-83.5,18.5-83.5s2.7-22.3,8.4-34.8c5.7-12.6,38.8-33.1,38.8-33.1"/>
		<path class="st3" d="M-3,304.8c31.9,51.2,63.6,96.1,94.7,122.1c62.4,17.3,180.6,33.7,197,39.2"/>
		<path class="st3" d="M91.8,426.9c8,8.3-15.1,184.5-22.9,181.6"/>
		<path class="st3" d="M207.2,277.1c0,0,7.1,18.9,5.1,36c-2,17.1-7.2,29.6-7.2,29.6"/>
		<path class="st3" d="M211.3,297.6c1.3-0.7,29,0,29,0l-29.5,26.9"/>
		<path class="st3" d="M240.3,297.6c0.4-1.3,50.7-148.3,50.7-148.3"/>
		<polyline class="st3" points="250.3,270.6 293.6,294.7 331.5,342.1 		"/>
		<path class="st3" d="M243.4,364.3c-1.4-0.1,63-76.9,65.3-86.9c2.3-10.2,8.4-69.3,10.6-69"/>
		<path class="st3" d="M343.3,211.6c-1.3,1.3-27.1,23.2-27.1,23.2"/>
		<path class="st3" d="M339.3,277.4c-4.8-2.6-27.5-21.2-27.5-21.2"/>
		<path class="st3" d="M310.2,277.4c2.2,0,163.3,2.8,163.3,2.8"/>
		<path class="st3" d="M528.2,310.5c-0.2,18.1-60,40.4-60,40.4"/>
		<path class="st3" d="M169.9,277.1c-1.3,0.4-52.8,17.6-59.2,27.7s-10.6,23.3-10.6,23.3"/>
		<path class="st3" d="M71.6,287.1c0,0-13.9-5.9-16.8,0.3c-2.9,6.2,14.9,26.9,14.9,26.9"/>
		<path class="st3" d="M418.8,121.7c7.9-2.9,39.4-12.6,55.7-13.2c16.3-0.5,14.3,6,26.9,12"/>
		<path class="st3" d="M472.1,108.7c7.7-1,21.4-6.2,26.1-17.8"/>
		<path class="st3" d="M528.1,294.8c-2.6-1.8-46,0-46,0"/>
		<path class="st3" d="M579.7,106"/>
		<line class="st3" x1="529.8" y1="157.2" x2="537.3" y2="165.4"/>
		<line class="st3" x1="240.3" y1="297.6" x2="284.4" y2="289.6"/>
		<path class="st3" d="M473.4,280.2c4.8-0.5,7.5,0.5,12.4-5.4l0,0"/>
		<path class="st3" d="M481.9,298.7c1.7-8.1-1.5-15-8.5-18.6"/>
		<path class="st3" d="M494.3,260.6"/>
		<path class="st3" d="M494.3,256.2"/>
		<path class="st3" d="M487.9,270.6"/>
		<path class="st3" d="M482.9,280.2"/>
		<path class="st3" d="M514.6,234.9c6.3-4.2,13.4-6.2,16.9,5.2"/>
		<path class="st3" d="M447.9,121.7"/>
	</g>
</g>
<g id="Pitches">
	<g id="p-T7">
		<polygon class="st4" points="166.8,248.6 151.8,248.6 159.3,233.6 		"/>
		<text transform="matrix(0.807 0 0 1 156.9539 247.2845)" class="st5 st6 st7">T7</text>
	</g>
	<g id="p-T5">
		<polygon class="st4" points="138.3,224.5 123.3,224.5 130.8,209.5 		"/>
		<text transform="matrix(0.807 0 0 1 128.0518 223.2155)" class="st5 st6 st7">T5</text>
	</g>
	<g id="p-T6">
		<polygon class="st4" points="146.7,253.2 131.7,253.2 139.2,238.2 		"/>
		<text transform="matrix(0.807 0 0 1 136.3624 251.9751)" class="st5 st6 st7">T6</text>
	</g>
	<g id="p-T4">
		<polygon class="st4" points="129.2,260.7 114.2,260.7 121.7,245.7 		"/>
		<text transform="matrix(0.807 0 0 1 118.9968 259.4751)" class="st5 st6 st7">T4</text>
	</g>
	<g id="p-T3">
		<polygon class="st4" points="108.5,276.4 93.5,276.4 101,261.4 		"/>
		<text transform="matrix(0.807 0 0 1 98.2256 275.0823)" class="st5 st6 st7">T3</text>
	</g>
	<g id="p-T2">
		<polygon class="st4" points="54.5,285.2 39.5,285.2 47,270.2 		"/>
		<text transform="matrix(0.807 0 0 1 44.274 283.8898)" class="st5 st6 st7">T2</text>
	</g>
	<g id="p-124">
		
			<rect x="189" y="320.5" transform="matrix(0.7071 0.7071 -0.7071 0.7071 287.3089 -41.9382)" class="st4" width="10.6" height="10.6"/>
		<text transform="matrix(0.807 0 0 1 190.4424 328.3473)" class="st5 st6 st8">124</text>
	</g>
	<g id="p-123">
		
			<rect x="162.5" y="323" transform="matrix(0.7071 0.7071 -0.7071 0.7071 281.3159 -22.462)" class="st4" width="10.6" height="10.6"/>
		<text transform="matrix(0.807 0 0 1 163.8511 330.8511)" class="st5 st6 st8">123</text>
	</g>
	<g id="p-122">
		
			<rect x="155.1" y="354.5" transform="matrix(0.7071 0.7071 -0.7071 0.7071 301.3585 -8.0195)" class="st4" width="10.6" height="10.6"/>
		<text transform="matrix(0.807 0 0 1 156.5169 362.266)" class="st5 st6 st8">122</text>
	</g>
	<g id="p-121">
		
			<rect x="137.6" y="328" transform="matrix(0.7071 0.7071 -0.7071 0.7071 277.5669 -3.4188)" class="st4" width="10.6" height="10.6"/>
		<text transform="matrix(0.807 0 0 1 139.4035 335.8473)" class="st5 st6 st8">121</text>
	</g>
	<g id="p-120">
		
			<rect x="122.2" y="357.4" transform="matrix(0.7071 0.7071 -0.7071 0.7071 293.8204 16.0503)" class="st4" width="10.6" height="10.6"/>
		<text transform="matrix(0.807 0 0 1 123.5983 365.2016)" class="st5 st6 st8">120</text>
	</g>
	<g id="p-119">
		
			<rect x="94.9" y="344.8" transform="matrix(0.7071 0.7071 -0.7071 0.7071 276.9132 31.7174)" class="st4" width="10.6" height="10.6"/>
		<text transform="matrix(0.807 0 0 1 96.5542 352.6264)" class="st5 st6 st8">119</text>
	</g>
	<g id="p-118">
		
			<rect x="83.4" y="337.4" transform="matrix(0.7071 0.7071 -0.7071 0.7071 268.3269 37.6922)" class="st4" width="10.6" height="10.6"/>
		<text transform="matrix(0.807 0 0 1 85.0684 345.2492)" class="st5 st6 st8">118</text>
	</g>
	<g id="p-117">
		<rect x="112.1" y="321.5" class="st4" width="10.6" height="10.6"/>
		<text transform="matrix(0.807 0 0 1 114.1814 329.273)" class="st5 st6 st8">117</text>
	</g>
	<g id="p-116">
		<rect x="87.3" y="301.7" class="st4" width="10.6" height="10.6"/>
		<text transform="matrix(0.807 0 0 1 89.035 309.5115)" class="st5 st6 st8">116</text>
	</g>
	<g id="p-115">
		<circle class="st4" cx="51.3" cy="312.3" r="7.9"/>
		<text transform="matrix(0.807 0 0 1 47.4318 315.0324)" class="st5 st6 st9">115</text>
	</g>
	<g id="p-114">
		<rect x="104.4" y="279.9" class="st4" width="10.6" height="10.6"/>
		<text transform="matrix(0.807 0 0 1 106.1837 287.6635)" class="st5 st6 st8">114</text>
	</g>
	<g id="p-113">
		
			<rect x="133" y="298.1" transform="matrix(0.7071 0.7071 -0.7071 0.7071 255.0452 -8.9601)" class="st4" width="10.6" height="10.6"/>
		<text transform="matrix(0.807 0 0 1 134.7535 305.8906)" class="st5 st6 st8">113</text>
	</g>
	<g id="p-112">
		<rect x="125.5" y="267.6" class="st4" width="10.6" height="10.6"/>
		<text transform="matrix(0.807 0 0 1 127.3316 275.4189)" class="st5 st6 st8">112</text>
	</g>
	<g id="p-111">
		<rect x="155.1" y="289.1" class="st4" width="10.6" height="10.6"/>
		<text transform="matrix(0.807 0 0 1 157.1898 296.935)" class="st5 st6 st8">111</text>
	</g>
	<g id="p-110">
		<rect x="151.9" y="261.1" class="st4" width="10.6" height="10.6"/>
		<text transform="matrix(0.807 0 0 1 153.6215 268.9396)" class="st5 st6 st8">110</text>
	</g>
	<g id="p-109">
		<rect x="175.9" y="285.1" class="st4" width="10.6" height="10.6"/>
		<text transform="matrix(0.807 0 0 1 177.1556 292.9012)" class="st5 st6 st8">109</text>
	</g>
	<g id="p-108A">
		
			<rect x="435.7" y="319" transform="matrix(0.7071 0.7071 -0.7071 0.7071 358.4674 -216.8862)" class="st4" width="10.6" height="10.6"/>
		<text transform="matrix(0.807 0 0 1 435.602 326.7692)" class="st5 st6 st8">108A</text>
	</g>
	<g id="p-108">
		
			<rect x="394.6" y="319" transform="matrix(0.7071 0.7071 -0.7071 0.7071 346.4099 -187.7767)" class="st4" width="10.6" height="10.6"/>
		<text transform="matrix(0.807 0 0 1 395.8431 326.7692)" class="st5 st6 st8">108</text>
	</g>
	<g id="p-107">
		
			<rect x="367.1" y="319" transform="matrix(0.7071 0.7071 -0.7071 0.7071 338.3628 -168.3494)" class="st4" width="10.6" height="10.6"/>
		<text transform="matrix(0.807 0 0 1 368.7662 326.7692)" class="st5 st6 st8">107</text>
	</g>
	<g id="p-106">
		
			<rect x="338.1" y="319" transform="matrix(0.7071 0.7071 -0.7071 0.7071 329.8809 -147.8721)" class="st4" width="10.6" height="10.6"/>
		<text transform="matrix(0.807 0 0 1 339.391 326.7692)" class="st5 st6 st8">106</text>
	</g>
	<g id="p-105">
		
			<rect x="306.5" y="336.8" transform="matrix(0.7071 0.7071 -0.7071 0.7071 333.2196 -120.2945)" class="st4" width="10.6" height="10.6"/>
		<text transform="matrix(0.807 0 0 1 307.7849 344.5882)" class="st5 st6 st8">105</text>
	</g>
	<g id="p-104">
		
			<rect x="281.1" y="269.6" transform="matrix(0.7071 0.7071 -0.7071 0.7071 278.2598 -122.0081)" class="st4" width="10.6" height="10.6"/>
		<text transform="matrix(0.807 0 0 1 282.4761 277.389)" class="st5 st6 st8">104</text>
	</g>
	<g id="p-103">
		
			<rect x="276" y="344.8" transform="matrix(0.7071 0.7071 -0.7071 0.7071 329.98 -96.397)" class="st4" width="10.6" height="10.6"/>
		<text transform="matrix(0.807 0 0 1 277.3359 352.6264)" class="st5 st6 st8">103</text>
	</g>
	<g id="p-102">
		
			<rect x="338" y="349.9" transform="matrix(0.7071 0.7071 -0.7071 0.7071 351.7243 -138.7421)" class="st4" width="10.6" height="10.6"/>
		<text transform="matrix(0.807 0 0 1 339.4012 357.7016)" class="st5 st6 st8">102</text>
	</g>
	<g id="p-100">
		
			<rect x="267.1" y="376.1" transform="matrix(0.7071 0.7071 -0.7071 0.7071 349.526 -80.9273)" class="st4" width="10.6" height="10.6"/>
		<text transform="matrix(0.807 0 0 1 268.4187 383.9554)" class="st5 st6 st8">100</text>
	</g>
	<g id="p-99">
		
			<rect x="214.9" y="335.3" transform="matrix(0.7071 0.7071 -0.7071 0.7071 305.3318 -55.9204)" class="st4" width="10.6" height="10.6"/>
		<text transform="matrix(0.807 0 0 1 217.163 343.1117)" class="st5 st6 st8">99</text>
	</g>
	<g id="p-98">
		
			<rect x="227.7" y="376.1" transform="matrix(0.7071 0.7071 -0.7071 0.7071 337.9826 -53.0589)" class="st4" width="10.6" height="10.6"/>
		<text transform="matrix(0.807 0 0 1 230.0528 383.9554)" class="st5 st6 st8">98</text>
	</g>
	<g id="p-96">
		
			<rect x="176.9" y="352.4" transform="matrix(0.7071 0.7071 -0.7071 0.7071 306.3061 -24.0847)" class="st4" width="10.6" height="10.6"/>
		<text transform="matrix(0.807 0 0 1 179.2209 360.2056)" class="st5 st6 st8">96</text>
	</g>
	<g id="p-95B">
		
			<rect x="242.5" y="304.6" transform="matrix(0.7071 0.7071 -0.7071 0.7071 291.7412 -84.4391)" class="st4" width="10.6" height="10.6"/>
		<text transform="matrix(0.807 0 0 1 243.2742 312.4471)" class="st5 st6 st8">95B</text>
	</g>
	<g id="p-95A">
		
			<rect x="262.7" y="301" transform="matrix(0.7071 0.7071 -0.7071 0.7071 295.1009 -99.7918)" class="st4" width="10.6" height="10.6"/>
		<text transform="matrix(0.807 0 0 1 263.6094 308.8262)" class="st5 st6 st8">95A</text>
	</g>
	<g id="p-95">
		
			<rect x="293.1" y="312.7" transform="matrix(0.7071 0.7071 -0.7071 0.7071 312.2427 -117.8737)" class="st4" width="10.6" height="10.6"/>
		<text transform="matrix(0.807 0 0 1 295.4164 320.4773)" class="st5 st6 st8">95</text>
	</g>
	<g id="p-94">
		
			<rect x="193.9" y="298.1" transform="matrix(0.7071 0.7071 -0.7071 0.7071 272.8852 -52.0295)" class="st4" width="10.6" height="10.6"/>
		<text transform="matrix(0.807 0 0 1 196.3591 305.8906)" class="st5 st6 st8">94</text>
	</g>
	<g id="p-93A">
		<circle class="st4" cx="183.1" cy="263.4" r="7.9"/>
		<text transform="matrix(0.807 0 0 1 178.4002 266.1307)" class="st5 st6 st9">93A</text>
	</g>
	<g id="p-98A">
		<circle class="st4" cx="205.6" cy="365.2" r="7.9"/>
		<text transform="matrix(0.807 0 0 1 200.9753 367.9233)" class="st5 st6 st9">98A</text>
	</g>
	<g id="p-93">
		
			<rect x="189" y="240.4" transform="matrix(0.7071 0.7071 -0.7071 0.7071 230.6707 -65.3985)" class="st4" width="10.6" height="10.6"/>
		<text transform="matrix(0.807 0 0 1 191.3047 248.2488)" class="st5 st6 st8">93</text>
	</g>
	<g id="p-92">
		<circle class="st4" cx="221.8" cy="280.8" r="7.9"/>
		<text transform="matrix(0.807 0 0 1 218.7453 283.5391)" class="st5 st6 st9">92</text>
	</g>
	<g id="p-91">
		
			<rect x="193.1" y="214.6" transform="matrix(0.7071 0.7071 -0.7071 0.7071 213.6246 -75.8933)" class="st4" width="10.6" height="10.6"/>
		<text transform="matrix(0.807 0 0 1 195.864 222.4249)" class="st5 st6 st8">91</text>
	</g>
	<g id="p-90">
		
			<rect x="220.2" y="226.3" transform="matrix(0.7071 0.7071 -0.7071 0.7071 229.8252 -91.646)" class="st4" width="10.6" height="10.6"/>
		<text transform="matrix(0.807 0 0 1 222.5489 234.1044)" class="st5 st6 st8">90</text>
	</g>
	<g id="p-88">
		
			<rect x="238.1" y="177.7" transform="matrix(0.7071 0.7071 -0.7071 0.7071 200.7176 -118.5125)" class="st4" width="10.6" height="10.6"/>
		<text transform="matrix(0.807 0 0 1 240.4492 185.5352)" class="st5 st6 st8">88</text>
	</g>
	<g id="p-89">
		
			<rect x="199.8" y="190" transform="matrix(0.7071 0.7071 -0.7071 0.7071 198.164 -87.8276)" class="st4" width="10.6" height="10.6"/>
		<text transform="matrix(0.807 0 0 1 202.113 197.7952)" class="st5 st6 st8">89</text>
	</g>
	<g id="p-87">
		
			<rect x="214.9" y="164.3" transform="matrix(0.7071 0.7071 -0.7071 0.7071 184.4473 -105.9924)" class="st4" width="10.6" height="10.6"/>
		<text transform="matrix(0.807 0 0 1 217.5975 172.1551)" class="st5 st6 st8">87</text>
	</g>
	<g id="p-85">
		<circle class="st4" cx="256.2" cy="139.4" r="7.9"/>
		<text transform="matrix(0.807 0 0 1 253.0367 142.1388)" class="st5 st6 st9">85</text>
	</g>
	<g id="p-86">
		<circle class="st4" cx="233.9" cy="154.7" r="7.9"/>
		<text transform="matrix(0.807 0 0 1 230.6959 157.3804)" class="st5 st6 st9">86</text>
	</g>
	<g id="p-84A">
		
			<rect x="471.3" y="247.4" transform="matrix(0.7071 0.7071 -0.7071 0.7071 318.281 -263.0131)" class="st4" width="10.6" height="10.6"/>
		<text transform="matrix(0.807 0 0 1 472.3471 255.1965)" class="st5 st6 st8">84A</text>
	</g>
	<g id="p-84">
		
			<rect x="483.4" y="234.6" transform="matrix(0.7071 0.7071 -0.7071 0.7071 312.7977 -275.3117)" class="st4" width="10.6" height="10.6"/>
		<text transform="matrix(0.807 0 0 1 485.8603 242.4283)" class="st5 st6 st8">84</text>
	</g>
	<g id="p-83">
		
			<rect x="455" y="301" transform="matrix(0.7071 0.7071 -0.7071 0.7071 351.4215 -235.7619)" class="st4" width="10.6" height="10.6"/>
		<text transform="matrix(0.807 0 0 1 457.3455 308.8262)" class="st5 st6 st8">83</text>
	</g>
	<g id="p-82">
		
			<rect x="462.1" y="261.5" transform="matrix(0.7071 0.7071 -0.7071 0.7071 325.533 -252.3782)" class="st4" width="10.6" height="10.6"/>
		<text transform="matrix(0.807 0 0 1 464.538 269.2678)" class="st5 st6 st8">82</text>
	</g>
	<g id="p-81">
		
			<rect x="431.7" y="289.5" transform="matrix(0.7071 0.7071 -0.7071 0.7071 336.4694 -222.6632)" class="st4" width="10.6" height="10.6"/>
		<text transform="matrix(0.807 0 0 1 434.473 297.3268)" class="st5 st6 st8">81</text>
	</g>
	<g id="p-80">
		
			<rect x="442.5" y="258.5" transform="matrix(0.7071 0.7071 -0.7071 0.7071 317.7274 -239.4052)" class="st4" width="10.6" height="10.6"/>
		<text transform="matrix(0.807 0 0 1 444.8807 266.3322)" class="st5 st6 st8">80</text>
	</g>
	<g id="p-79">
		
			<rect x="407.2" y="289.5" transform="matrix(0.7071 0.7071 -0.7071 0.7071 329.2883 -205.3266)" class="st4" width="10.6" height="10.6"/>
		<text transform="matrix(0.807 0 0 1 409.9064 297.3268)" class="st5 st6 st8">79</text>
	</g>
	<g id="p-78">
		
			<rect x="420.6" y="258.5" transform="matrix(0.7071 0.7071 -0.7071 0.7071 311.2863 -223.8549)" class="st4" width="10.6" height="10.6"/>
		<text transform="matrix(0.807 0 0 1 423.2896 266.3322)" class="st5 st6 st8">78</text>
	</g>
	<g id="p-77">
		
			<rect x="382.3" y="289.1" transform="matrix(0.7071 0.7071 -0.7071 0.7071 321.7249 -187.8503)" class="st4" width="10.6" height="10.6"/>
		<text transform="matrix(0.807 0 0 1 385.4449 296.935)" class="st5 st6 st8">77</text>
	</g>
	<g id="p-76">
		
			<rect x="398.2" y="258.9" transform="matrix(0.7071 0.7071 -0.7071 0.7071 304.9985 -207.9434)" class="st4" width="10.6" height="10.6"/>
		<text transform="matrix(0.807 0 0 1 400.9203 266.698)" class="st5 st6 st8">76</text>
	</g>
	<g id="p-75">
		
			<rect x="361.3" y="288" transform="matrix(0.7071 0.7071 -0.7071 0.7071 314.7989 -173.3259)" class="st4" width="10.6" height="10.6"/>
		<text transform="matrix(0.807 0 0 1 364.0471 295.8368)" class="st5 st6 st8">75</text>
	</g>
	<g id="p-74">
		
			<rect x="362.3" y="258.5" transform="matrix(0.7071 0.7071 -0.7071 0.7071 294.2357 -182.6912)" class="st4" width="10.6" height="10.6"/>
		<text transform="matrix(0.807 0 0 1 365.173 266.3322)" class="st5 st6 st8">74</text>
	</g>
	<g id="p-73">
		
			<rect x="338.1" y="288" transform="matrix(0.7071 0.7071 -0.7071 0.7071 308.0083 -156.932)" class="st4" width="10.6" height="10.6"/>
		<text transform="matrix(0.807 0 0 1 340.8802 295.8368)" class="st5 st6 st8">73</text>
	</g>
	<g id="p-72">
		
			<rect x="337.3" y="258.1" transform="matrix(0.7071 0.7071 -0.7071 0.7071 286.6076 -165.1137)" class="st4" width="10.6" height="10.6"/>
		<text transform="matrix(0.807 0 0 1 340.1342 265.9131)" class="st5 st6 st8">72</text>
	</g>
	<g id="p-71">
		
			<rect x="311" y="288.6" transform="matrix(0.7071 0.7071 -0.7071 0.7071 300.4273 -137.576)" class="st4" width="10.6" height="10.6"/>
		<text transform="matrix(0.807 0 0 1 314.1392 296.3637)" class="st5 st6 st8">71</text>
	</g>
	<g id="p-70">
		
			<rect x="311.8" y="265.3" transform="matrix(0.7071 0.7071 -0.7071 0.7071 284.1935 -144.9832)" class="st4" width="10.6" height="10.6"/>
		<text transform="matrix(0.807 0 0 1 314.5327 273.0642)" class="st5 st6 st8">70</text>
	</g>
	<g id="p-69A">
		
			<rect x="263.5" y="258.1" transform="matrix(0.7071 0.7071 -0.7071 0.7071 264.9981 -112.9436)" class="st4" width="10.6" height="10.6"/>
		<text transform="matrix(0.807 0 0 1 264.42 265.9131)" class="st5 st6 st8">69A</text>
	</g>
	<g id="p-69">
		
			<rect x="271.9" y="237.7" transform="matrix(0.7071 0.7071 -0.7071 0.7071 252.9789 -124.8181)" class="st4" width="10.6" height="10.6"/>
		<text transform="matrix(0.807 0 0 1 274.1534 245.4674)" class="st5 st6 st8">69</text>
	</g>
	<g id="p-68">
		
			<rect x="280.1" y="214.6" transform="matrix(0.7071 0.7071 -0.7071 0.7071 239.0945 -137.3831)" class="st4" width="10.6" height="10.6"/>
		<text transform="matrix(0.807 0 0 1 282.397 222.4249)" class="st5 st6 st8">68</text>
	</g>
	<g id="p-67A">
		<circle class="st4" cx="250.3" cy="228.8" r="7.9"/>
		<text transform="matrix(0.807 0 0 1 246.058 231.5617)" class="st5 st6 st9">67A</text>
	</g>
	<g id="p-67">
		
			<rect x="251.9" y="203" transform="matrix(0.7071 0.7071 -0.7071 0.7071 222.6556 -120.8559)" class="st4" width="10.6" height="10.6"/>
		<text transform="matrix(0.807 0 0 1 254.625 210.845)" class="st5 st6 st8">67</text>
	</g>
	<g id="p-66">
		
			<rect x="289.3" y="185.4" transform="matrix(0.7071 0.7071 -0.7071 0.7071 221.1567 -152.4209)" class="st4" width="10.6" height="10.6"/>
		<text transform="matrix(0.807 0 0 1 291.5617 193.2531)" class="st5 st6 st8">66</text>
	</g>
	<g id="p-65">
		<circle class="st4" cx="297.4" cy="135.7" r="7.9"/>
		<text transform="matrix(0.807 0 0 1 294.2109 138.4537)" class="st5 st6 st9">65</text>
	</g>
	<g id="p-64">
		
			<rect x="293.1" y="161.8" transform="matrix(0.7071 0.7071 -0.7071 0.7071 205.5927 -162.0497)" class="st4" width="10.6" height="10.6"/>
		<text transform="matrix(0.807 0 0 1 295.5189 169.6513)" class="st5 st6 st8">64</text>
	</g>
	<g id="p-63">
		
			<rect x="313.8" y="124.8" transform="matrix(0.7071 0.7071 -0.7071 0.7071 185.4529 -187.5279)" class="st4" width="10.6" height="10.6"/>
		<text transform="matrix(0.807 0 0 1 316.1191 132.6013)" class="st5 st6 st8">63</text>
	</g>
	<g id="p-62">
		<circle class="st4" cx="323.7" cy="219.9" r="7.9"/>
		<text transform="matrix(0.807 0 0 1 320.6666 222.6425)" class="st5 st6 st9">62</text>
	</g>
	<g id="p-61">
		<polygon class="st4" points="358.3,118.7 343.3,118.7 350.8,103.7 		"/>
		<text transform="matrix(0.807 0 0 1 348.262 117.4027)" class="st5 st6 st7">61</text>
	</g>
	<g id="p-60A">
		
			<rect x="345.5" y="218.2" transform="matrix(0.7071 0.7071 -0.7071 0.7071 260.7921 -182.6207)" class="st4" width="10.6" height="10.6"/>
		<text transform="matrix(0.807 0 0 1 346.4393 225.9974)" class="st5 st6 st8">60A</text>
	</g>
	<g id="p-60">
		
			<rect x="366.3" y="219.3" transform="matrix(0.7071 0.7071 -0.7071 0.7071 267.6415 -196.9603)" class="st4" width="10.6" height="10.6"/>
		<text transform="matrix(0.807 0 0 1 368.5826 227.0956)" class="st5 st6 st8">60</text>
	</g>
	<g id="p-59A">
		
			<rect x="350.7" y="156" transform="matrix(0.7071 0.7071 -0.7071 0.7071 218.3277 -204.4523)" class="st4" width="10.6" height="10.6"/>
		<text transform="matrix(0.807 0 0 1 351.5592 163.8225)" class="st5 st6 st8">59A</text>
	</g>
	<g id="p-59">
		
			<rect x="330.3" y="176.3" transform="matrix(0.7071 0.7071 -0.7071 0.7071 226.7492 -184.1209)" class="st4" width="10.6" height="10.6"/>
		<text transform="matrix(0.807 0 0 1 332.637 184.1539)" class="st5 st6 st8">59</text>
	</g>
	<g id="p-58">
		
			<rect x="388" y="219.3" transform="matrix(0.7071 0.7071 -0.7071 0.7071 274.02 -212.3594)" class="st4" width="10.6" height="10.6"/>
		<text transform="matrix(0.807 0 0 1 390.3778 227.0956)" class="st5 st6 st8">58</text>
	</g>
	<g id="p-57">
		
			<rect x="379.8" y="188.4" transform="matrix(0.7071 0.7071 -0.7071 0.7071 249.7562 -215.595)" class="st4" width="10.6" height="10.6"/>
		<text transform="matrix(0.807 0 0 1 382.5491 196.1887)" class="st5 st6 st8">57</text>
	</g>
	<g id="p-56">
		<circle class="st4" cx="418.8" cy="224.6" r="7.9"/>
		<text transform="matrix(0.807 0 0 1 415.5948 227.3132)" class="st5 st6 st9">56</text>
	</g>
	<g id="p-55">
		<polygon class="st4" points="412.5,199.9 397.5,199.9 405,184.9 		"/>
		<text transform="matrix(0.807 0 0 1 401.9967 198.6149)" class="st5 st6 st7">55</text>
	</g>
	<g id="p-54">
		<circle class="st4" cx="439.9" cy="224.6" r="7.9"/>
		<text transform="matrix(0.807 0 0 1 436.8986 227.3132)" class="st5 st6 st9">54</text>
	</g>
	<g id="p-53">
		<polygon class="st4" points="438.3,200.5 423.3,200.5 430.8,185.5 		"/>
		<text transform="matrix(0.807 0 0 1 427.8072 199.265)" class="st5 st6 st7">53</text>
	</g>
	<g id="p-52">
		<circle class="st4" cx="460.1" cy="224.6" r="7.9"/>
		<text transform="matrix(0.807 0 0 1 457.0169 227.3132)" class="st5 st6 st9">52</text>
	</g>
	<g id="p-51A">
		<circle class="st4" cx="465.3" cy="196.2" r="7.9"/>
		<text transform="matrix(0.807 0 0 1 461.1088 198.9101)" class="st5 st6 st9">51A</text>
	</g>
	<g id="p-51">
		<circle class="st4" cx="449.4" cy="196.2" r="7.9"/>
		<text transform="matrix(0.807 0 0 1 446.6623 198.9101)" class="st5 st6 st9">51</text>
	</g>
	<g id="p-50">
		<circle class="st4" cx="475.3" cy="224.6" r="7.9"/>
		<text transform="matrix(0.807 0 0 1 472.1588 227.3132)" class="st5 st6 st9">50</text>
	</g>
	<g id="p-49">
		<circle class="st4" cx="481.8" cy="196.3" r="7.9"/>
		<text transform="matrix(0.807 0 0 1 478.6939 199.0137)" class="st5 st6 st9">49</text>
	</g>
	<g id="p-48">
		<circle class="st4" cx="490" cy="224.6" r="7.9"/>
		<text transform="matrix(0.807 0 0 1 486.9501 227.3132)" class="st5 st6 st9">48</text>
	</g>
	<g id="p-47">
		<circle class="st4" cx="498.2" cy="197.1" r="7.9"/>
		<text transform="matrix(0.807 0 0 1 495.592 199.843)" class="st5 st6 st9">47</text>
	</g>
	<g id="p-46">
		<circle class="st4" cx="505.1" cy="224.6" r="7.9"/>
		<text transform="matrix(0.807 0 0 1 502.0074 227.3132)" class="st5 st6 st9">46</text>
	</g>
	<g id="p-45">
		<circle class="st4" cx="514.6" cy="197.8" r="7.9"/>
		<text transform="matrix(0.807 0 0 1 511.5741 200.5166)" class="st5 st6 st9">45</text>
	</g>
	<g id="p-44A">
		<circle class="st4" cx="526.7" cy="169.7" r="7.9"/>
		<text transform="matrix(0.807 0 0 1 522.2494 172.3728)" class="st5 st6 st9">44A</text>
	</g>
	<g id="p-44">
		<circle class="st4" cx="511.7" cy="169.7" r="7.9"/>
		<text transform="matrix(0.807 0 0 1 508.8085 172.3728)" class="st5 st6 st9">44</text>
	</g>
	<g id="p-43">
		<circle class="st4" cx="515.9" cy="145.1" r="7.9"/>
		<text transform="matrix(0.807 0 0 1 512.8531 147.7848)" class="st5 st6 st9">43</text>
	</g>
	<g id="p-40A">
		<circle class="st4" cx="480.6" cy="169.7" r="7.9"/>
		<text transform="matrix(0.807 0 0 1 476.0691 172.3728)" class="st5 st6 st9">40A</text>
	</g>
	<g id="p-40">
		<circle class="st4" cx="464.6" cy="169.8" r="7.9"/>
		<text transform="matrix(0.807 0 0 1 461.5458 172.4763)" class="st5 st6 st9">40</text>
	</g>
	<g id="p-42">
		<circle class="st4" cx="496.2" cy="169.7" r="7.9"/>
		<text transform="matrix(0.807 0 0 1 493.2975 172.3728)" class="st5 st6 st9">42</text>
	</g>
	<g id="p-41">
		<circle class="st4" cx="493.3" cy="147" r="7.9"/>
		<text transform="matrix(0.807 0 0 1 490.7415 149.7419)" class="st5 st6 st9">41</text>
	</g>
	<g id="p-39">
		<circle class="st4" cx="485.8" cy="132.9" r="7.9"/>
		<text transform="matrix(0.807 0 0 1 482.6123 135.6499)" class="st5 st6 st9">39</text>
	</g>
	<g id="p-38">
		<circle class="st4" cx="448.7" cy="169.8" r="7.9"/>
		<text transform="matrix(0.807 0 0 1 445.5404 172.4763)" class="st5 st6 st9">38</text>
	</g>
	<g id="p-37">
		<polygon class="st4" points="476.8,150.2 461.8,150.2 469.3,135.2 		"/>
		<text transform="matrix(0.807 0 0 1 466.7605 148.9043)" class="st5 st6 st7">37</text>
	</g>
	<g id="p-36">
		<polygon class="st4" points="435.9,177.9 420.9,177.9 428.4,162.9 		"/>
		<text transform="matrix(0.807 0 0 1 425.4504 176.5909)" class="st5 st6 st7">36</text>
	</g>
	<g id="p-35">
		<polygon class="st4" points="413.6,174.6 398.6,174.6 406.1,159.6 		"/>
		<text transform="matrix(0.807 0 0 1 403.1022 173.3776)" class="st5 st6 st7">35</text>
	</g>
	<g id="p-34">
		
			<rect x="381.5" y="157.6" transform="matrix(0.7071 0.7071 -0.7071 0.7071 228.4492 -225.8035)" class="st4" width="10.6" height="10.6"/>
		<text transform="matrix(0.807 0 0 1 383.9362 165.3647)" class="st5 st6 st8">34</text>
	</g>
	<g id="p-33">
		<polygon class="st4" points="447.6,149.5 432.6,149.5 440.1,134.5 		"/>
		<text transform="matrix(0.807 0 0 1 437.162 148.2543)" class="st5 st6 st7">33</text>
	</g>
	<g id="p-32">
		<polygon class="st4" points="409.3,112.3 394.3,112.3 401.8,97.3 		"/>
		<text transform="matrix(0.807 0 0 1 398.9093 111.0686)" class="st5 st6 st7">32</text>
	</g>
	<g id="p-31">
		<circle class="st4" cx="424.1" cy="97.3" r="7.9"/>
		<text transform="matrix(0.807 0 0 1 421.4646 100.06)" class="st5 st6 st9">31</text>
	</g>
	<g id="p-30">
		<circle class="st4" cx="452.3" cy="92.1" r="7.9"/>
		<text transform="matrix(0.807 0 0 1 449.192 94.846)" class="st5 st6 st9">30</text>
	</g>
	<g id="p-29">
		<circle class="st4" cx="474" cy="95.3" r="7.9"/>
		<text transform="matrix(0.807 0 0 1 470.919 97.9945)" class="st5 st6 st9">29</text>
	</g>
	<g id="p-28">
		<circle class="st4" cx="503.3" cy="103.7" r="7.9"/>
		<text transform="matrix(0.807 0 0 1 500.2199 106.3941)" class="st5 st6 st9">28</text>
	</g>
	<g id="p-27">
		<circle class="st4" cx="511.2" cy="130.1" r="7.9"/>
		<text transform="matrix(0.807 0 0 1 508.5433 132.819)" class="st5 st6 st9">27</text>
	</g>
	<g id="p-25">
		<rect x="569.6" y="107" class="st4" width="10.6" height="10.6"/>
		<text transform="matrix(0.807 0 0 1 572.0345 114.8423)" class="st5 st6 st8">25</text>
	</g>
	<g id="p-24">
		
			<rect x="581.6" y="82.4" transform="matrix(0.7071 0.7071 -0.7071 0.7071 233.8876 -389.3274)" class="st4" width="10.6" height="10.6"/>
		<text transform="matrix(0.807 0 0 1 584.1253 90.1675)" class="st5 st6 st8">24</text>
	</g>
	<g id="p-22">
		
			<rect x="606.3" y="82.8" transform="matrix(0.7071 0.7071 -0.7071 0.7071 241.4346 -406.684)" class="st4" width="10.6" height="10.6"/>
		<text transform="matrix(0.807 0 0 1 608.8431 90.5992)" class="st5 st6 st8">22</text>
	</g>
	<g id="p-21">
		<circle class="st4" cx="641.3" cy="117.8" r="7.9"/>
		<text transform="matrix(0.807 0 0 1 638.7493 120.5369)" class="st5 st6 st9">21</text>
	</g>
	<g id="p-20">
		
			<rect x="630.4" y="84.2" transform="matrix(0.7071 0.7071 -0.7071 0.7071 249.4865 -423.2794)" class="st4" width="10.6" height="10.6"/>
		<text transform="matrix(0.807 0 0 1 632.8058 92.021)" class="st5 st6 st8">20</text>
	</g>
	<g id="p-19">
		<rect x="669.7" y="123.5" class="st4" width="10.6" height="10.6"/>
		<text transform="matrix(0.807 0 0 1 672.4083 131.3021)" class="st5 st6 st8">19</text>
	</g>
	<g id="p-18">
		
			<rect x="653.3" y="79.8" transform="matrix(0.7071 0.7071 -0.7071 0.7071 253.0542 -440.8145)" class="st4" width="10.6" height="10.6"/>
		<text transform="matrix(0.807 0 0 1 656.0972 87.5601)" class="st5 st6 st8">18</text>
	</g>
	<g id="p-17A">
		
			<rect x="699.1" y="55.6" transform="matrix(0.7071 0.7071 -0.7071 0.7071 249.3902 -480.2218)" class="st4" width="10.6" height="10.6"/>
		<text transform="matrix(0.807 0 0 1 700.8214 63.4336)" class="st5 st6 st8">17A</text>
	</g>
	<g id="p-17">
		
			<rect x="665.4" y="50.9" transform="matrix(0.7071 0.7071 -0.7071 0.7071 236.2038 -457.7923)" class="st4" width="10.6" height="10.6"/>
		<text transform="matrix(0.807 0 0 1 668.5626 58.7309)" class="st5 st6 st8">17</text>
	</g>
	<g id="p-16">
		
			<rect x="694.2" y="82.8" transform="matrix(0.7071 0.7071 -0.7071 0.7071 267.1703 -468.8153)" class="st4" width="10.6" height="10.6"/>
		<text transform="matrix(0.807 0 0 1 696.9358 90.5992)" class="st5 st6 st8">16</text>
	</g>
	<g id="p-15">
		
			<rect x="731.2" y="58.7" transform="matrix(0.7071 0.7071 -0.7071 0.7071 260.9566 -502.0672)" class="st4" width="10.6" height="10.6"/>
		<text transform="matrix(0.807 0 0 1 733.9812 66.4727)" class="st5 st6 st8">15</text>
	</g>
	<g id="p-14">
		
			<rect x="731.6" y="95.9" transform="matrix(0.7071 0.7071 -0.7071 0.7071 287.3814 -491.4595)" class="st4" width="10.6" height="10.6"/>
		<text transform="matrix(0.807 0 0 1 734.4924 103.6742)" class="st5 st6 st8">14</text>
	</g>
	<g id="p-13">
		
			<rect x="731.6" y="125.8" transform="matrix(0.7071 0.7071 -0.7071 0.7071 308.5431 -482.694)" class="st4" width="10.6" height="10.6"/>
		<text transform="matrix(0.807 0 0 1 734.4065 133.6013)" class="st5 st6 st8">13</text>
	</g>
	<g id="p-12">
		
			<rect x="731.2" y="161.8" transform="matrix(0.7071 0.7071 -0.7071 0.7071 333.9149 -471.8469)" class="st4" width="10.6" height="10.6"/>
		<text transform="matrix(0.807 0 0 1 734.0779 169.6513)" class="st5 st6 st8">12</text>
	</g>
	<g id="p-11">
		<rect x="693.7" y="124.3" class="st4" width="10.6" height="10.6"/>
		<text transform="matrix(0.807 0 0 1 696.89 132.1274)" class="st5 st6 st8">11</text>
	</g>
	<g id="p-10A">
		
			<rect x="694.2" y="179.6" transform="matrix(0.7071 0.7071 -0.7071 0.7071 335.6107 -440.4664)" class="st4" width="10.6" height="10.6"/>
		<text transform="matrix(0.807 0 0 1 695.5422 187.3887)" class="st5 st6 st8">10A</text>
	</g>
	<g id="p-10">
		
			<rect x="665.4" y="175.1" transform="matrix(0.7071 0.7071 -0.7071 0.7071 324.0243 -421.4159)" class="st4" width="10.6" height="10.6"/>
		<text transform="matrix(0.807 0 0 1 668.1622 182.9278)" class="st5 st6 st8">10</text>
	</g>
	<g id="p-9">
		<rect x="703.3" y="146.4" class="st4" width="10.6" height="10.6"/>
		<text transform="matrix(0.807 0 0 1 707.1329 154.2204)" class="st5 st6 st8">9</text>
	</g>
	<g id="p-8">
		
			<rect x="637.9" y="172.6" transform="matrix(0.7071 0.7071 -0.7071 0.7071 314.1935 -402.6901)" class="st4" width="10.6" height="10.6"/>
		<text transform="matrix(0.807 0 0 1 641.7033 180.4239)" class="st5 st6 st8">8</text>
	</g>
	<g id="p-7">
		
			<rect x="634.9" y="144.7" transform="matrix(0.7071 0.7071 -0.7071 0.7071 293.5562 -408.7956)" class="st4" width="10.6" height="10.6"/>
		<text transform="matrix(0.807 0 0 1 639.1511 152.4598)" class="st5 st6 st8">7</text>
	</g>
	<g id="p-6">
		
			<rect x="609.4" y="170.2" transform="matrix(0.7071 0.7071 -0.7071 0.7071 304.1451 -383.2317)" class="st4" width="10.6" height="10.6"/>
		<text transform="matrix(0.807 0 0 1 613.1713 178.0237)" class="st5 st6 st8">6</text>
	</g>
	<g id="p-5">
		
			<rect x="613.6" y="141.6" transform="matrix(0.7071 0.7071 -0.7071 0.7071 285.168 -394.6228)" class="st4" width="10.6" height="10.6"/>
		<text transform="matrix(0.807 0 0 1 617.4467 149.4207)" class="st5 st6 st8">5</text>
	</g>
	<g id="p-4">
		
			<rect x="587.2" y="170.1" transform="matrix(0.7071 0.7071 -0.7071 0.7071 297.5815 -367.5931)" class="st4" width="10.6" height="10.6"/>
		<text transform="matrix(0.807 0 0 1 591.1292 177.92)" class="st5 st6 st8">4</text>
	</g>
	<g id="p-3">
		
			<rect x="591.5" y="141.6" transform="matrix(0.7071 0.7071 -0.7071 0.7071 278.6777 -378.9539)" class="st4" width="10.6" height="10.6"/>
		<text transform="matrix(0.807 0 0 1 595.305 149.4207)" class="st5 st6 st8">3</text>
	</g>
	<g id="p-2">
		
			<rect x="556.8" y="167.6" transform="matrix(0.7071 0.7071 -0.7071 0.7071 286.9087 -346.8338)" class="st4" width="10.6" height="10.6"/>
		<text transform="matrix(0.807 0 0 1 560.7272 175.4163)" class="st5 st6 st8">2</text>
	</g>
	<g id="p-1">
		
			<rect x="566.9" y="139.8" transform="matrix(0.7071 0.7071 -0.7071 0.7071 270.1626 -362.1037)" class="st4" width="10.6" height="10.6"/>
		<text transform="matrix(0.807 0 0 1 571.1224 147.5672)" class="st5 st6 st8">1</text>
	</g>
</g>
</svg>
